<svg id="svg" version="1.1" xmlns="http://www.w3.org/2000/svg" xmlns:xlink="http://www.w3.org/1999/xlink" width="400" height="400" viewBox="0, 0, 400,400"><g id="svgg"><path id="path0" d="M181.741 0.490 C 136.699 4.769,92.828 24.726,62.178 54.880 L 57.950 59.040 61.612 68.640 C 65.868 79.797,65.812 79.492,63.760 80.357 C 62.924 80.709,61.952 81.123,61.600 81.277 C 61.228 81.440,72.715 81.566,89.029 81.578 L 117.097 81.600 116.473 80.145 C 115.137 77.027,113.920 69.878,113.920 65.147 C 113.920 61.578,115.412 60.160,119.167 60.160 L 120.914 60.160 121.617 58.320 C 122.004 57.308,122.394 55.422,122.484 54.129 L 122.648 51.777 119.911 53.599 C 116.602 55.801,116.237 55.762,115.077 53.088 C 114.316 51.332,114.193 51.201,113.737 51.658 C 113.460 51.934,113.029 52.160,112.777 52.160 C 112.518 52.160,112.318 52.472,112.314 52.880 C 112.295 55.415,109.970 63.177,109.034 63.832 C 108.322 64.331,106.030 63.378,103.087 61.359 L 101.694 60.404 100.847 61.081 C 97.890 63.442,92.123 65.273,91.189 64.146 C 90.724 63.587,90.553 56.758,90.966 55.280 L 91.212 54.400 89.265 54.400 C 85.746 54.400,85.513 53.837,86.850 48.568 C 88.371 42.571,90.879 39.360,94.042 39.360 C 94.904 39.360,95.084 39.157,96.025 37.115 C 97.367 34.203,99.205 32.454,101.246 32.148 C 102.057 32.027,102.720 31.889,102.720 31.843 C 102.720 31.796,102.503 31.238,102.237 30.602 C 101.307 28.376,105.234 26.789,111.957 26.675 C 115.540 26.614,115.609 26.599,116.598 25.640 C 117.989 24.292,119.946 23.680,122.864 23.680 C 125.051 23.680,125.410 23.594,126.050 22.912 C 131.243 17.385,139.614 20.673,141.470 28.971 C 141.837 30.608,141.940 30.744,143.047 31.042 C 143.698 31.217,144.867 31.921,145.644 32.605 L 147.058 33.850 148.169 33.258 C 151.705 31.376,155.800 33.584,157.502 38.292 C 157.840 39.224,158.030 39.360,159.003 39.360 C 162.622 39.360,165.367 42.813,167.204 49.679 C 168.246 53.570,167.947 54.080,164.624 54.080 C 162.883 54.080,162.815 54.111,163.035 54.800 C 163.605 56.590,163.612 63.542,163.045 64.110 C 162.156 64.998,156.739 63.588,154.038 61.765 L 152.677 60.847 149.601 62.903 C 146.501 64.976,145.627 65.293,145.036 64.560 C 144.359 63.720,142.383 57.841,141.843 55.064 C 141.534 53.468,141.161 52.162,141.016 52.161 C 140.452 52.159,137.067 55.717,136.096 57.335 C 134.446 60.081,134.442 60.160,135.976 60.160 C 139.018 60.160,140.797 61.880,140.799 64.824 C 140.803 69.928,139.608 76.592,138.099 79.889 L 137.318 81.595 157.379 81.678 L 177.440 81.760 177.440 86.720 L 177.440 91.680 161.200 91.763 L 144.960 91.846 144.960 99.619 C 144.960 108.921,145.376 108.160,140.290 108.160 C 135.540 108.160,136.000 109.072,136.000 99.654 L 136.000 92.160 83.574 92.160 L 31.148 92.160 30.054 94.102 C 29.452 95.170,28.780 96.240,28.560 96.479 C 28.340 96.718,28.160 96.991,28.160 97.085 C 28.160 97.179,27.141 99.025,25.896 101.188 C 2.437 141.935,-5.606 192.493,3.855 239.734 C 4.549 243.195,5.257 246.399,5.430 246.854 L 5.744 247.680 22.534 247.680 L 39.325 247.680 38.564 246.000 C 36.367 241.146,35.443 230.107,37.095 228.455 L 38.031 227.520 47.836 227.520 C 59.103 227.520,59.801 227.710,59.852 230.784 C 59.860 231.268,60.282 231.809,61.086 232.364 C 65.396 235.342,63.852 244.014,58.834 245.017 C 57.962 245.192,56.645 246.647,56.641 247.440 C 56.641 247.572,62.987 247.680,70.745 247.680 L 84.849 247.680 83.890 246.721 C 83.363 246.194,82.852 245.366,82.754 244.881 C 81.564 238.950,68.799 166.254,68.800 165.407 C 68.801 160.692,75.453 159.891,76.314 164.503 C 76.427 165.106,79.434 181.944,82.997 201.920 L 89.475 238.240 94.292 238.328 C 98.293 238.401,99.177 238.334,99.513 237.928 C 99.869 237.500,102.443 237.440,120.491 237.440 L 141.064 237.440 140.723 236.536 C 140.155 235.031,140.697 233.903,143.141 231.498 C 147.417 227.290,151.129 226.060,158.720 226.335 C 163.205 226.497,172.784 225.723,173.354 225.152 C 173.430 225.077,173.327 224.707,173.126 224.332 C 172.154 222.515,172.647 222.027,176.960 220.547 C 181.603 218.954,182.213 218.981,182.759 220.803 C 183.233 222.387,179.383 223.373,214.493 212.674 L 223.385 209.963 225.533 208.045 C 230.407 203.691,233.036 200.781,232.499 200.335 C 231.661 199.640,231.923 198.900,233.874 196.441 L 235.748 194.080 236.288 190.240 C 238.006 178.023,239.709 173.653,245.264 167.200 C 249.334 162.472,249.718 161.540,249.516 156.876 C 249.326 152.463,248.590 149.584,247.740 149.921 C 241.174 152.522,232.325 152.246,229.536 149.355 C 227.279 147.015,224.320 138.085,224.320 133.614 C 224.320 133.558,223.785 133.411,223.131 133.288 C 219.254 132.561,218.685 129.937,221.314 124.912 C 222.849 121.978,223.002 120.889,222.391 117.280 C 221.046 109.344,221.748 102.692,224.504 97.237 L 225.253 95.755 222.878 93.309 C 219.583 89.916,217.808 86.378,217.780 83.144 C 217.753 80.129,218.057 79.939,220.985 81.143 C 225.193 82.872,232.443 82.386,241.760 79.748 C 252.483 76.712,263.066 79.159,271.317 86.581 C 280.518 94.859,281.871 105.382,276.198 124.546 C 270.891 142.473,271.356 149.450,278.628 161.048 C 289.362 178.166,290.527 186.771,287.186 224.227 C 284.993 248.803,284.655 257.050,285.585 263.282 C 290.179 294.050,289.583 301.271,282.288 303.236 C 280.984 303.587,281.795 303.639,288.843 303.658 L 296.886 303.680 297.241 301.200 C 297.956 296.202,307.885 224.716,308.226 222.111 C 308.717 218.356,308.867 218.240,313.245 218.240 C 316.100 218.240,316.855 218.342,317.428 218.806 L 318.127 219.372 314.722 262.086 L 311.317 304.800 311.703 331.360 C 311.915 345.968,312.110 357.950,312.137 357.986 C 312.164 358.022,314.609 358.071,317.572 358.095 L 322.958 358.139 328.111 353.869 C 368.786 320.172,394.122 271.754,399.418 217.600 C 399.990 211.743,399.990 188.257,399.418 182.400 C 398.772 175.796,397.409 166.144,396.628 162.640 L 396.468 161.920 367.173 161.920 C 347.591 161.920,337.673 161.810,337.259 161.589 C 336.651 161.263,336.640 160.321,336.640 107.490 C 336.640 64.572,336.721 53.766,337.040 53.941 C 337.260 54.062,336.869 53.674,336.171 53.080 C 335.473 52.486,333.673 50.919,332.171 49.598 C 300.181 21.467,260.441 4.384,217.920 0.487 C 211.240 -0.126,188.201 -0.123,181.741 0.490 M130.640 23.422 C 129.661 23.752,129.210 24.320,129.927 24.320 C 130.662 24.320,133.092 26.997,133.753 28.535 C 135.083 31.626,132.804 33.194,131.358 30.183 C 130.529 28.459,129.383 27.229,128.090 26.679 C 126.768 26.115,126.861 26.088,126.412 27.171 C 125.043 30.475,127.612 35.411,130.149 34.351 C 133.387 32.998,138.880 35.042,138.880 37.601 C 138.880 37.864,139.115 38.080,139.401 38.080 C 139.856 38.080,139.894 37.781,139.701 35.760 C 138.758 25.911,135.682 21.722,130.640 23.422 M120.219 26.704 C 118.036 27.482,117.680 28.013,118.417 29.389 C 118.844 30.185,119.040 31.181,119.040 32.555 L 119.040 34.560 120.080 34.562 C 121.632 34.564,123.208 35.081,124.863 36.131 C 126.750 37.328,127.025 37.055,125.562 35.436 C 124.280 34.016,123.228 31.929,123.187 30.720 L 123.159 29.920 122.860 30.666 C 122.696 31.077,122.649 31.763,122.756 32.191 C 122.999 33.156,122.405 33.920,121.412 33.920 C 119.430 33.920,119.534 29.192,121.556 27.390 C 122.859 26.229,122.323 25.953,120.219 26.704 M109.244 29.451 C 104.797 30.332,104.841 30.268,106.730 33.114 C 109.935 37.943,113.706 39.095,115.632 35.834 C 116.512 34.346,114.206 33.294,111.623 34.005 C 109.871 34.487,109.088 32.275,110.720 31.453 C 111.675 30.971,114.193 30.916,115.339 31.352 C 116.237 31.693,116.385 31.419,115.847 30.413 C 115.220 29.242,112.382 28.829,109.244 29.451 M142.587 37.056 C 142.841 40.746,142.485 41.481,140.595 41.175 C 139.588 41.011,139.532 41.056,139.342 42.182 C 139.233 42.830,139.081 43.594,139.003 43.880 C 138.898 44.267,139.400 44.629,140.954 45.289 L 143.045 46.178 144.162 45.576 C 145.493 44.860,145.461 45.059,144.483 43.583 C 143.399 41.944,143.159 39.901,143.837 38.080 C 144.770 35.571,144.769 35.348,143.825 34.606 C 142.444 33.519,142.355 33.694,142.587 37.056 M100.077 35.760 C 99.613 36.244,98.885 37.430,98.459 38.396 L 97.685 40.152 99.599 41.996 C 101.656 43.978,101.774 44.025,103.337 43.480 C 104.202 43.178,104.339 42.999,104.181 42.370 C 103.920 41.330,104.533 38.808,105.315 37.711 C 105.914 36.869,105.922 36.781,105.419 36.588 C 104.612 36.278,103.926 36.828,103.133 38.420 C 102.219 40.256,101.870 40.640,101.119 40.640 C 99.575 40.640,99.657 38.422,101.290 36.016 C 102.278 34.559,101.403 34.375,100.077 35.760 M150.126 35.485 C 149.794 35.695,149.783 35.816,150.079 35.999 C 151.311 36.761,152.214 41.578,151.296 42.496 C 150.122 43.670,148.800 42.551,148.800 40.384 C 148.800 37.336,146.664 36.781,146.330 39.742 C 146.022 42.474,151.697 45.988,152.472 43.545 C 152.579 43.207,153.237 42.415,153.934 41.786 C 155.426 40.438,155.427 40.427,154.416 38.431 C 153.167 35.967,151.342 34.714,150.126 35.485 M132.240 36.732 C 130.875 36.945,131.747 40.054,133.423 40.951 C 134.602 41.582,134.085 43.520,132.737 43.520 C 131.799 43.520,129.641 41.332,129.232 39.967 C 128.937 38.981,128.771 38.798,128.430 39.081 C 127.058 40.220,128.698 43.458,132.043 46.217 C 134.683 48.395,134.669 48.398,135.754 45.253 C 137.683 39.663,136.218 36.111,132.240 36.732 M116.948 38.807 C 114.775 40.981,114.747 44.572,116.861 50.096 L 117.520 51.816 118.931 50.845 C 124.061 47.315,126.343 44.547,125.596 42.759 C 125.334 42.133,125.120 41.184,125.120 40.650 C 125.120 39.417,124.787 39.430,123.321 40.717 C 121.888 41.976,120.976 43.872,120.967 45.616 C 120.959 47.060,120.524 47.680,119.520 47.680 C 117.142 47.680,117.780 42.431,120.529 39.373 C 122.114 37.610,122.059 37.440,119.905 37.440 C 118.461 37.440,118.191 37.565,116.948 38.807 M107.387 39.627 C 106.599 41.153,106.994 44.160,107.983 44.160 C 108.833 44.160,110.923 46.037,111.502 47.320 C 112.257 48.995,112.816 48.857,112.749 47.011 C 112.721 46.235,112.660 44.490,112.614 43.133 C 112.551 41.316,112.405 40.618,112.059 40.485 C 111.317 40.201,111.206 40.559,111.591 42.000 C 112.049 43.718,111.657 44.558,110.461 44.419 C 109.379 44.294,108.688 42.964,108.604 40.848 C 108.525 38.816,108.052 38.342,107.387 39.627 M92.091 43.500 C 91.028 44.742,89.904 47.453,89.311 50.205 L 89.008 51.610 91.304 51.414 C 97.123 50.917,99.867 48.912,98.869 45.888 C 98.287 44.124,95.040 45.575,95.040 47.598 C 95.040 48.667,93.899 49.446,92.959 49.018 C 91.468 48.338,92.267 45.204,94.386 43.421 C 95.622 42.380,95.608 42.240,94.265 42.240 C 93.386 42.240,92.957 42.489,92.091 43.500 M157.839 42.504 C 157.552 42.686,157.720 42.967,158.433 43.494 C 159.798 44.503,161.125 47.414,160.636 48.327 C 159.990 49.534,158.683 49.048,157.852 47.293 C 157.251 46.023,155.885 44.800,155.069 44.800 C 154.466 44.800,154.201 47.341,154.695 48.382 C 155.806 50.723,165.553 52.984,164.675 50.697 C 164.587 50.467,164.353 49.677,164.155 48.940 C 162.831 44.025,159.995 41.135,157.839 42.504 M127.677 46.613 C 127.675 46.760,127.029 47.578,126.242 48.432 L 124.811 49.983 125.149 51.472 C 125.541 53.202,125.296 55.697,124.475 58.335 L 123.896 60.197 124.737 60.099 C 127.640 59.759,130.735 50.879,129.060 47.699 C 128.517 46.669,127.684 46.015,127.677 46.613 M103.568 47.680 C 103.174 49.650,103.994 51.856,105.788 53.650 C 106.999 54.860,107.124 55.390,106.377 56.137 C 105.208 57.307,102.929 55.633,101.530 52.578 L 100.750 50.873 99.833 51.596 C 98.288 52.815,99.490 55.056,103.166 57.814 C 107.766 61.264,107.554 61.295,108.659 57.007 C 110.434 50.116,109.383 46.720,105.475 46.720 C 103.825 46.720,103.753 46.757,103.568 47.680 M137.066 49.282 C 135.927 51.795,135.439 52.017,133.579 50.867 L 132.523 50.214 132.316 51.747 C 132.008 54.029,130.979 56.998,129.916 58.675 L 128.974 60.160 130.167 60.155 C 131.329 60.150,131.398 60.081,132.800 57.528 C 134.610 54.232,137.787 50.800,140.119 49.620 L 141.867 48.736 140.015 47.888 C 138.996 47.422,138.144 47.041,138.121 47.042 C 138.099 47.043,137.624 48.051,137.066 49.282 M147.378 47.356 C 144.036 48.000,143.419 51.748,145.572 58.328 L 146.595 61.455 147.559 60.888 C 152.605 57.916,155.863 53.448,154.043 51.997 C 152.971 51.142,152.788 51.190,152.540 52.393 C 152.287 53.617,150.608 56.169,149.636 56.806 C 147.635 58.117,146.496 56.086,148.166 54.185 C 149.938 52.166,150.769 48.497,149.696 47.424 C 149.276 47.004,149.218 47.002,147.378 47.356 M94.465 54.040 C 93.825 54.436,93.440 56.295,93.440 58.993 L 93.440 61.509 94.320 61.289 C 95.936 60.884,98.170 59.796,98.827 59.094 L 99.476 58.400 98.378 57.205 L 97.280 56.009 97.280 56.942 C 97.280 58.015,96.454 59.000,95.773 58.738 C 95.517 58.640,95.244 58.560,95.166 58.560 C 94.714 58.560,94.451 56.790,94.703 55.443 C 95.022 53.733,95.016 53.699,94.465 54.040 M159.269 55.530 C 159.677 57.129,159.671 57.406,159.216 58.101 C 158.296 59.505,156.800 58.915,156.800 57.148 L 156.800 56.184 155.853 57.292 C 155.332 57.901,154.900 58.588,154.893 58.817 C 154.878 59.284,158.292 60.947,159.969 61.290 L 161.058 61.512 160.836 58.836 C 160.621 56.245,159.893 54.069,159.166 53.846 C 158.926 53.772,158.959 54.310,159.269 55.530 M339.207 106.720 L 339.207 157.600 342.884 153.893 L 346.560 150.186 346.560 106.720 L 346.560 63.254 342.884 59.547 L 339.207 55.840 339.207 106.720 M52.599 64.493 C 50.862 66.364,49.402 67.996,49.356 68.119 C 49.145 68.685,54.048 80.795,54.452 80.704 C 54.978 80.586,61.874 78.029,62.037 77.891 C 62.141 77.803,56.072 61.420,55.849 61.186 C 55.799 61.135,54.337 62.623,52.599 64.493 M116.998 63.528 C 116.703 63.823,116.556 64.377,116.636 64.892 C 116.710 65.370,116.854 66.984,116.957 68.480 C 117.187 71.814,118.243 77.153,119.015 78.880 C 120.043 81.180,120.065 81.187,127.194 81.356 L 133.589 81.508 134.457 80.579 C 136.358 78.544,137.690 73.101,137.732 67.200 L 137.760 63.200 127.627 63.116 C 118.819 63.042,117.430 63.096,116.998 63.528 M349.120 107.797 L 349.120 149.440 371.360 149.440 C 393.387 149.440,393.600 149.434,393.600 148.800 C 393.600 148.166,393.387 148.160,372.503 148.160 C 353.750 148.160,351.350 148.104,350.903 147.657 C 350.451 147.205,350.400 143.120,350.400 107.468 C 350.400 68.265,350.392 67.771,349.760 66.967 L 349.120 66.154 349.120 107.797 M43.789 74.800 C 42.145 76.868,40.727 78.596,40.638 78.641 C 40.549 78.685,40.527 79.369,40.590 80.161 L 40.704 81.600 45.986 81.600 C 50.079 81.600,51.235 81.510,51.118 81.200 C 48.252 73.599,47.221 71.040,47.022 71.040 C 46.888 71.040,45.433 72.732,43.789 74.800 M352.960 108.160 L 352.960 145.280 372.761 145.280 L 392.561 145.280 391.817 142.640 C 390.921 139.467,387.684 129.952,386.890 128.160 C 386.578 127.456,385.858 125.656,385.290 124.160 C 383.922 120.562,376.502 105.000,375.066 102.720 C 374.900 102.456,373.586 100.224,372.146 97.760 C 369.408 93.073,365.451 86.956,365.040 86.773 C 364.908 86.715,364.800 86.535,364.800 86.374 C 364.800 85.871,358.743 77.601,357.154 75.933 C 356.783 75.545,356.480 75.077,356.480 74.893 C 356.480 74.710,356.372 74.554,356.240 74.547 C 356.108 74.539,355.424 73.751,354.720 72.795 C 354.016 71.839,353.332 71.053,353.200 71.048 C 353.068 71.044,352.960 87.744,352.960 108.160 M247.040 81.480 C 246.600 81.565,244.944 82.000,243.360 82.447 C 235.206 84.750,227.258 85.638,222.960 84.727 C 221.141 84.341,220.800 84.338,220.800 84.707 C 220.800 85.302,221.978 87.606,222.933 88.880 L 223.713 89.920 227.021 89.920 C 230.824 89.920,234.122 89.364,239.418 87.832 C 255.740 83.108,270.305 88.661,275.884 101.734 C 276.920 104.162,276.995 103.956,276.299 100.589 C 273.866 88.807,259.097 79.162,247.040 81.480 M36.876 84.373 C 36.535 84.511,34.206 87.593,33.471 88.880 C 33.288 89.199,47.514 89.280,104.141 89.280 L 175.040 89.280 175.040 86.720 L 175.040 84.160 106.160 84.185 C 68.276 84.199,37.098 84.284,36.876 84.373 M138.880 98.720 L 138.880 105.280 140.480 105.280 L 142.080 105.280 142.080 98.720 L 142.080 92.160 140.480 92.160 L 138.880 92.160 138.880 98.720 M226.750 99.190 C 224.583 104.020,224.084 109.224,225.123 116.160 C 225.885 121.249,225.686 122.854,223.871 126.267 C 221.717 130.317,221.951 130.640,227.040 130.633 C 230.110 130.628,230.720 130.855,230.720 132.000 C 230.720 132.956,230.169 133.367,228.536 133.628 C 227.495 133.795,227.218 133.964,227.334 134.362 C 227.416 134.647,227.581 135.571,227.700 136.416 C 228.090 139.172,229.521 139.582,232.683 137.844 C 234.737 136.715,235.578 136.817,235.786 138.219 C 236.006 139.704,232.737 141.751,230.138 141.757 C 228.510 141.761,228.512 141.898,230.178 145.264 C 232.295 149.541,238.309 150.037,247.633 146.704 C 251.061 145.478,251.999 145.358,252.286 146.106 C 252.679 147.132,252.467 147.860,251.668 148.224 C 251.122 148.473,250.919 148.759,251.050 149.097 C 251.702 150.775,252.234 153.513,252.423 156.159 L 252.640 159.199 253.920 159.665 C 259.022 161.524,267.132 159.211,270.164 155.033 L 271.238 153.553 270.579 151.166 C 270.068 149.316,269.776 148.753,269.280 148.664 C 268.928 148.601,267.779 148.390,266.726 148.196 C 260.866 147.115,256.709 142.559,255.396 135.780 C 255.048 133.981,254.754 133.163,254.493 133.263 C 253.782 133.533,250.865 132.577,250.038 131.803 C 247.610 129.533,249.363 127.307,251.898 129.440 C 254.485 131.616,257.920 129.245,257.920 125.282 C 257.920 121.072,254.522 118.719,251.483 120.825 C 249.970 121.874,249.083 121.523,248.787 119.756 C 247.328 111.070,244.900 107.624,237.120 103.203 C 234.392 101.653,231.133 99.693,229.877 98.847 L 227.594 97.310 226.750 99.190 M234.631 114.739 C 236.370 115.332,237.211 116.161,237.066 117.141 C 236.886 118.354,236.070 118.601,234.533 117.908 C 232.673 117.069,230.989 117.166,229.499 118.199 C 227.737 119.420,226.560 119.177,226.560 117.592 C 226.560 115.321,231.360 113.624,234.631 114.739 M233.268 121.020 C 234.045 121.855,234.116 123.417,233.422 124.409 C 232.253 126.078,229.120 124.806,229.120 122.662 C 229.120 120.721,231.947 119.602,233.268 121.020 M344.875 155.445 C 342.986 157.340,341.440 158.996,341.440 159.125 C 341.440 159.254,353.680 159.360,368.640 159.360 C 390.185 159.360,395.841 159.277,395.843 158.960 C 395.845 158.740,395.533 157.084,395.150 155.280 L 394.453 152.000 371.381 152.000 L 348.309 152.000 344.875 155.445 M270.787 158.540 C 266.858 162.480,259.287 164.332,253.787 162.698 C 252.857 162.422,252.075 162.242,252.048 162.298 C 250.981 164.541,249.945 166.073,247.594 168.885 C 244.045 173.130,241.847 176.420,242.308 176.798 C 242.359 176.839,242.737 177.049,243.148 177.263 C 243.560 177.477,244.445 178.148,245.114 178.753 L 246.332 179.853 248.510 177.206 C 257.693 166.048,262.621 163.602,269.034 167.020 C 276.432 170.963,278.637 177.842,274.732 184.790 C 273.464 187.046,273.845 186.596,260.631 201.444 L 250.382 212.960 250.613 217.120 C 252.193 245.558,254.427 253.366,263.867 263.433 C 269.265 269.190,270.929 272.103,270.671 275.345 L 270.560 276.738 277.512 278.270 C 281.336 279.113,284.556 279.711,284.668 279.599 C 284.780 279.487,284.322 275.463,283.650 270.658 C 281.706 256.754,281.741 253.731,284.162 225.760 C 287.215 190.490,286.882 184.538,281.127 171.557 C 279.994 169.002,279.135 167.459,274.720 160.051 C 272.466 156.269,272.889 156.432,270.787 158.540 M71.905 164.804 C 71.513 165.363,71.539 165.919,72.101 169.044 C 72.456 171.022,75.639 188.840,79.173 208.640 L 85.600 244.640 86.400 244.640 C 87.718 244.640,87.635 244.017,82.404 214.690 C 79.660 199.307,76.534 181.752,75.457 175.680 C 73.388 164.006,73.094 163.107,71.905 164.804 M260.960 169.378 C 258.539 170.540,256.415 172.378,253.258 176.040 C 250.375 179.386,243.840 187.857,243.840 188.249 C 243.840 188.578,257.307 199.759,257.754 199.802 C 258.561 199.879,271.379 185.160,272.644 182.703 C 276.490 175.229,268.280 165.866,260.960 169.378 M238.713 194.905 L 235.469 199.068 236.215 199.668 C 236.625 199.998,239.624 202.496,242.880 205.219 C 246.136 207.943,248.888 210.118,248.995 210.054 C 249.103 209.990,250.705 208.238,252.555 206.161 L 255.919 202.384 248.938 196.563 L 241.956 190.742 238.713 194.905 M230.400 207.405 C 227.848 209.876,225.472 212.090,225.120 212.325 C 224.768 212.561,215.200 215.576,203.857 219.026 C 192.515 222.476,183.193 225.341,183.141 225.392 C 183.018 225.515,185.213 232.034,185.565 232.592 C 185.788 232.946,189.626 232.434,206.599 229.789 C 232.857 225.696,230.049 226.868,240.790 215.525 L 245.154 210.916 240.329 206.898 C 237.676 204.688,235.400 202.887,235.272 202.897 C 235.144 202.906,232.952 204.935,230.400 207.405 M46.023 210.356 C 46.080 210.642,45.837 211.282,45.484 211.778 C 44.242 213.522,44.281 214.236,45.706 215.855 C 47.646 218.059,47.822 220.159,46.296 222.886 C 44.923 225.338,42.583 224.224,43.857 221.726 C 44.717 220.041,44.674 218.441,43.749 217.703 C 41.321 215.768,41.288 212.122,43.677 209.734 C 44.579 208.832,45.784 209.152,46.023 210.356 M51.968 211.926 C 52.238 212.361,52.190 212.719,51.760 213.472 C 51.039 214.733,51.050 214.845,51.980 215.849 C 53.374 217.353,53.316 220.264,51.865 221.577 C 50.468 222.841,49.244 221.568,49.912 219.545 C 50.313 218.328,50.296 218.181,49.674 217.516 C 48.198 215.941,48.101 214.313,49.358 212.222 C 50.070 211.038,51.326 210.895,51.968 211.926 M309.771 230.960 C 309.020 236.372,306.436 254.948,304.030 272.240 L 299.653 303.680 304.170 303.680 L 308.687 303.680 309.382 294.960 C 312.861 251.281,315.200 221.738,315.200 221.458 C 315.200 221.256,314.382 221.120,313.168 221.120 L 311.136 221.120 309.771 230.960 M178.342 223.163 C 177.255 223.536,176.269 223.938,176.151 224.058 C 175.933 224.280,180.209 223.075,180.453 222.845 C 180.875 222.449,180.081 222.569,178.342 223.163 M232.652 227.248 C 229.774 229.096,228.266 229.404,201.440 233.613 C 187.008 235.878,174.660 237.888,174.000 238.081 C 172.602 238.488,172.381 238.884,173.700 238.620 C 177.732 237.814,180.776 242.556,178.597 246.250 C 178.225 246.880,177.920 247.460,177.920 247.538 C 177.920 247.616,186.971 247.680,198.033 247.680 L 218.145 247.680 219.233 248.400 C 219.879 248.828,220.641 249.790,221.111 250.774 L 221.903 252.427 228.231 242.934 L 234.560 233.440 234.560 230.019 C 234.560 226.060,234.542 226.034,232.652 227.248 M174.720 227.882 C 172.622 228.718,164.348 229.471,159.520 229.264 C 152.752 228.975,149.494 229.823,145.901 232.810 C 143.849 234.516,143.982 234.663,146.597 233.585 C 153.243 230.844,158.400 231.122,163.275 234.484 C 165.490 236.012,168.971 236.291,172.982 235.262 C 174.378 234.903,176.204 234.511,177.040 234.389 C 178.862 234.123,178.839 234.401,177.346 230.719 C 176.045 227.508,175.940 227.395,174.720 227.882 M40.880 230.316 L 39.040 230.432 39.040 232.320 C 39.040 235.309,39.958 241.523,40.734 243.785 C 41.829 246.976,42.280 247.200,47.623 247.200 C 53.184 247.200,53.726 246.995,54.864 244.458 C 56.187 241.510,57.651 232.109,57.041 230.480 C 56.897 230.095,46.144 229.986,40.880 230.316 M155.840 234.666 C 156.280 234.913,157.216 235.199,157.920 235.301 L 159.200 235.486 157.795 235.030 C 155.330 234.231,154.934 234.157,155.840 234.666 M59.507 236.080 C 59.500 236.740,59.311 238.324,59.087 239.600 C 58.648 242.106,58.730 242.302,59.763 241.200 C 61.152 239.718,61.463 237.779,60.604 235.968 C 59.929 234.547,59.523 234.588,59.507 236.080 M148.960 235.894 C 147.552 236.424,146.040 236.976,145.600 237.121 C 145.095 237.288,146.444 237.395,149.255 237.412 C 153.023 237.436,153.805 237.526,154.328 238.000 C 154.947 238.560,164.877 239.010,164.319 238.452 C 164.202 238.336,162.354 238.235,160.213 238.228 C 155.819 238.215,154.541 237.841,152.640 236.010 L 151.520 234.932 148.960 235.894 M226.634 250.609 C 219.408 261.456,218.629 262.500,215.261 265.859 L 211.646 269.464 208.062 270.097 C 204.182 270.782,201.846 271.547,199.840 272.788 C 198.243 273.776,197.920 273.777,207.680 272.766 L 215.840 271.921 218.560 270.525 C 221.296 269.121,223.711 266.784,234.021 255.568 L 235.242 254.240 235.016 247.580 C 234.673 237.441,235.638 237.093,226.634 250.609 M90.080 243.520 L 90.080 245.440 132.800 245.435 C 156.296 245.432,175.709 245.310,175.940 245.164 C 176.217 244.988,176.325 244.368,176.260 243.329 L 176.160 241.760 133.120 241.680 L 90.080 241.599 90.080 243.520 M6.400 250.832 C 6.400 251.158,6.536 251.842,6.703 252.352 C 6.869 252.863,7.307 254.324,7.676 255.600 L 8.347 257.920 112.770 257.920 L 217.194 257.920 218.037 257.257 C 219.561 256.058,219.246 251.571,217.577 250.708 C 215.995 249.890,6.400 250.013,6.400 250.832 M229.520 264.589 C 226.308 268.020,223.735 270.881,223.802 270.948 C 223.924 271.070,236.234 269.793,236.384 269.643 C 236.509 269.518,235.633 258.563,235.490 258.453 C 235.418 258.398,232.732 261.159,229.520 264.589 M9.659 261.984 C 11.995 270.447,20.720 290.079,26.482 299.840 L 28.654 303.520 38.772 303.604 C 46.700 303.671,48.965 303.781,49.241 304.113 C 49.477 304.398,49.664 309.139,49.809 318.567 L 50.026 332.596 52.168 335.018 C 56.018 339.371,66.623 349.508,71.896 353.876 L 77.058 358.152 81.159 358.099 C 83.415 358.070,85.317 357.990,85.385 357.921 C 85.516 357.790,82.714 271.043,82.369 264.560 L 82.169 260.800 45.750 260.800 L 9.332 260.800 9.659 261.984 M85.120 261.962 C 85.120 262.601,85.262 267.317,85.435 272.442 C 85.608 277.567,86.336 300.264,87.051 322.880 C 87.766 345.496,88.424 364.603,88.512 365.340 C 88.688 366.807,89.015 367.063,96.480 371.582 L 99.360 373.325 99.450 369.783 C 99.500 367.834,100.176 346.728,100.953 322.880 C 101.730 299.032,102.450 275.920,102.553 271.520 C 102.656 267.120,102.817 262.908,102.910 262.160 L 103.079 260.800 94.100 260.800 L 85.120 260.800 85.120 261.962 M105.600 262.960 C 105.601 265.060,102.879 349.198,102.619 355.120 L 102.489 358.080 135.096 358.080 L 167.702 358.080 167.521 356.560 C 166.762 350.206,161.268 284.318,161.398 283.142 C 162.001 277.720,162.487 277.521,179.556 275.718 L 192.551 274.346 194.436 272.910 C 199.043 269.398,202.574 267.837,207.394 267.178 L 210.174 266.798 213.161 263.799 L 216.147 260.800 160.874 260.800 L 105.600 260.800 105.600 262.960 M225.440 274.060 L 214.880 275.405 211.339 277.519 C 198.874 284.962,193.608 292.041,196.277 297.772 L 197.027 299.384 205.090 299.788 C 257.646 302.422,280.467 302.285,283.563 299.319 C 285.347 297.609,286.434 289.430,285.530 284.505 L 285.271 283.091 261.915 277.882 C 249.070 275.018,237.984 272.683,237.280 272.694 C 236.576 272.706,231.248 273.320,225.440 274.060 M199.554 308.233 C 199.447 311.097,199.216 322.008,199.040 332.480 C 198.864 342.952,198.650 352.996,198.563 354.800 L 198.406 358.080 202.833 358.080 L 207.260 358.080 207.468 345.200 C 207.583 338.116,207.773 326.080,207.889 318.452 C 208.132 302.560,207.887 303.680,211.116 303.680 C 215.347 303.680,212.797 303.443,206.354 303.237 L 199.749 303.027 199.554 308.233 M31.554 308.400 C 32.199 309.412,33.510 311.392,34.468 312.800 L 36.210 315.360 41.625 315.265 L 47.040 315.171 47.040 310.865 L 47.040 306.560 38.710 306.560 L 30.380 306.560 31.554 308.400 M210.878 307.760 C 210.877 308.420,210.784 310.364,210.670 312.080 L 210.463 315.200 259.632 315.200 L 308.800 315.200 308.797 312.560 C 308.796 311.108,308.704 309.164,308.593 308.240 L 308.391 306.560 259.635 306.560 L 210.880 306.560 210.878 307.760 M38.720 318.451 C 38.720 319.041,47.008 329.738,47.266 329.481 C 47.329 329.417,47.282 326.826,47.161 323.723 L 46.941 318.080 42.830 318.080 C 39.927 318.080,38.720 318.189,38.720 318.451 M210.560 320.532 C 210.560 324.795,209.640 384.785,209.455 392.560 L 209.279 400.000 211.759 399.998 L 214.240 399.997 214.331 397.838 C 214.480 394.311,218.841 322.255,219.037 320.080 L 219.218 318.080 214.889 318.080 L 210.560 318.080 210.560 320.532 M221.760 319.151 C 221.760 319.740,221.256 328.344,220.640 338.271 C 220.025 348.198,219.521 356.716,219.520 357.200 L 219.520 358.080 259.680 358.080 L 299.840 358.080 299.840 357.006 C 299.840 356.415,299.337 347.811,298.722 337.886 C 298.107 327.961,297.603 319.444,297.602 318.960 L 297.600 318.080 259.680 318.080 L 221.760 318.080 221.760 319.151 M300.277 319.280 C 300.373 319.940,301.130 331.928,301.959 345.920 C 302.789 359.912,303.500 371.405,303.539 371.459 C 303.579 371.513,304.944 370.730,306.574 369.717 L 309.536 367.876 309.327 352.818 C 309.212 344.536,309.024 333.332,308.911 327.920 L 308.704 318.080 304.404 318.080 L 300.104 318.080 300.277 319.280 M81.769 361.548 C 82.116 361.871,83.156 362.675,84.080 363.335 L 85.760 364.535 85.760 362.747 L 85.760 360.960 83.449 360.960 C 81.191 360.960,81.152 360.973,81.769 361.548 M102.245 366.480 C 102.123 369.516,102.071 372.640,102.131 373.422 L 102.240 374.843 105.440 376.581 C 119.146 384.025,147.288 394.722,150.227 393.605 C 151.343 393.181,161.652 391.492,167.120 390.837 L 171.840 390.272 171.840 385.856 L 171.840 381.440 171.079 381.440 C 170.661 381.440,170.159 381.248,169.964 381.012 C 169.673 380.662,168.000 364.206,168.000 361.693 L 168.000 360.960 135.234 360.960 L 102.469 360.960 102.245 366.480 M198.259 370.632 C 198.021 380.494,197.892 381.440,196.789 381.440 C 195.810 381.440,195.820 390.034,196.800 390.646 C 197.390 391.014,197.440 391.392,197.440 395.523 L 197.440 400.000 202.042 400.000 L 206.644 400.000 206.840 384.080 C 206.948 375.324,207.110 366.540,207.200 364.560 L 207.363 360.960 202.928 360.960 L 198.493 360.960 198.259 370.632 M219.181 362.000 C 219.171 362.572,218.918 366.964,218.618 371.760 L 218.073 380.480 252.606 380.480 L 287.138 380.480 291.489 378.193 C 293.882 376.935,296.974 375.256,298.360 374.462 L 300.880 373.018 300.672 369.629 C 300.557 367.765,300.375 365.052,300.268 363.600 L 300.072 360.960 259.636 360.960 L 219.200 360.960 219.181 362.000 M312.320 363.379 L 312.320 365.798 315.213 363.796 C 319.384 360.910,319.378 360.960,315.559 360.960 L 312.320 360.960 312.320 363.379 M174.720 385.760 L 174.720 390.080 178.080 390.080 L 181.440 390.080 181.440 385.760 L 181.440 381.440 178.080 381.440 L 174.720 381.440 174.720 385.760 M184.320 385.760 L 184.320 390.080 188.800 390.080 L 193.280 390.080 193.280 385.760 L 193.280 381.440 188.800 381.440 L 184.320 381.440 184.320 385.760 M217.920 384.800 L 217.920 386.240 245.459 386.240 C 263.376 386.240,272.930 386.350,272.804 386.554 C 272.579 386.918,279.359 384.129,279.820 383.668 C 280.017 383.471,268.948 383.360,249.024 383.360 L 217.920 383.360 217.920 384.800 M217.479 390.640 C 217.379 391.476,217.205 393.852,217.091 395.919 L 216.883 399.678 218.282 399.524 C 230.638 398.157,239.673 396.582,249.346 394.108 C 255.850 392.445,265.280 389.580,265.280 389.268 C 265.280 389.186,254.566 389.120,241.470 389.120 L 217.660 389.120 217.479 390.640 " stroke="none" fill="#ffffff" fill-rule="evenodd"></path><path id="path1" d="M247.356 78.694 C 246.386 78.829,243.650 79.463,241.276 80.103 C 231.940 82.619,222.085 83.009,220.016 80.943 C 219.849 80.777,219.398 80.640,219.015 80.640 C 215.875 80.640,218.180 88.103,222.843 93.031 L 225.367 95.698 224.381 97.849 C 222.000 103.046,221.222 109.286,222.207 115.277 C 223.099 120.695,222.957 122.219,221.280 125.297 C 218.929 129.609,219.379 131.822,222.854 133.054 L 224.429 133.612 225.146 137.536 C 227.282 149.216,229.985 152.113,238.240 151.574 C 241.276 151.376,244.781 150.734,246.997 149.971 L 248.324 149.514 248.811 151.190 C 251.052 158.900,250.378 161.563,244.452 168.392 C 239.864 173.679,238.197 178.165,236.466 189.883 C 236.131 192.151,235.642 194.311,235.379 194.683 C 235.116 195.056,234.248 196.201,233.450 197.228 C 231.839 199.304,231.796 199.431,232.480 200.114 C 233.238 200.872,233.210 200.909,228.240 205.638 L 223.520 210.130 211.200 213.861 C 204.424 215.913,195.377 218.659,191.095 219.964 L 183.310 222.336 182.706 220.928 C 181.943 219.148,181.500 219.127,176.904 220.659 C 172.873 222.002,172.520 222.301,173.096 223.893 C 173.320 224.515,173.382 225.145,173.232 225.292 C 172.576 225.941,164.849 226.643,159.015 226.583 C 151.100 226.503,148.529 227.199,144.206 230.592 C 138.726 234.893,139.550 239.120,145.441 236.926 C 146.673 236.468,148.544 235.803,149.600 235.448 L 151.520 234.804 152.797 235.975 C 154.573 237.604,156.786 238.200,160.291 237.992 C 162.218 237.878,163.563 237.975,164.789 238.317 C 166.859 238.895,170.930 238.716,173.920 237.916 C 174.976 237.634,187.360 235.607,201.440 233.413 C 227.913 229.286,229.758 228.909,232.601 227.036 C 233.533 226.422,234.355 225.920,234.428 225.920 C 234.501 225.920,234.563 227.684,234.566 229.840 L 234.572 233.760 225.686 247.039 C 215.784 261.836,211.839 266.658,209.317 267.044 C 202.883 268.029,198.570 269.755,194.690 272.897 L 192.741 274.476 179.970 275.804 C 162.128 277.658,161.692 277.865,161.624 284.468 C 161.604 286.449,166.916 349.996,167.978 360.480 C 168.156 362.240,168.613 367.424,168.994 372.000 C 169.723 380.763,169.784 381.024,171.143 381.181 L 172.000 381.280 172.089 385.816 L 172.177 390.352 170.329 390.566 C 161.799 391.553,149.589 393.576,149.994 393.934 C 150.366 394.263,155.896 395.571,156.091 395.376 C 156.185 395.282,156.418 395.333,156.611 395.488 C 157.259 396.012,160.574 396.538,161.185 396.213 C 161.846 395.861,169.724 394.557,176.917 393.608 C 180.441 393.144,183.638 392.960,188.197 392.960 L 194.560 392.960 194.560 396.480 L 194.560 400.000 195.840 400.000 L 197.120 400.000 197.120 395.382 C 197.120 391.024,197.083 390.752,196.471 390.557 C 195.395 390.216,195.648 381.330,196.738 381.175 C 197.989 380.998,198.003 380.720,198.726 341.440 C 199.112 320.408,199.533 303.088,199.660 302.951 C 199.881 302.712,207.272 303.002,219.200 303.719 C 227.745 304.233,270.327 304.475,275.360 304.038 C 290.093 302.760,290.745 300.209,285.554 264.160 C 284.560 257.258,284.627 252.320,285.921 237.280 C 288.723 204.727,289.135 198.313,288.865 191.503 C 288.472 181.574,285.092 171.631,278.536 161.120 C 271.272 149.473,270.754 142.147,275.969 124.867 C 282.338 103.768,279.891 91.995,267.418 83.731 C 261.736 79.965,253.352 77.861,247.356 78.694 M253.448 81.298 C 264.418 82.665,274.107 90.537,276.307 99.868 C 277.586 105.297,276.731 112.738,273.607 123.359 C 271.203 131.530,270.496 135.259,270.148 141.600 L 269.920 145.760 268.555 145.674 C 263.051 145.325,258.988 140.928,257.905 134.148 C 257.575 132.080,257.581 132.050,258.510 131.070 C 263.429 125.881,259.913 116.667,253.219 117.204 L 251.205 117.366 250.871 116.043 C 248.928 108.336,246.363 105.256,237.795 100.337 C 227.933 94.676,223.417 90.885,221.401 86.577 C 220.221 84.056,220.227 84.044,222.405 84.511 C 226.672 85.426,235.538 84.499,242.941 82.363 C 245.570 81.604,248.036 81.135,250.088 81.002 C 250.445 80.979,251.957 81.112,253.448 81.298 M230.080 98.889 C 231.048 99.537,234.072 101.333,236.800 102.881 C 244.713 107.371,247.157 110.572,248.655 118.404 C 249.258 121.558,249.726 121.870,251.771 120.480 C 253.717 119.158,255.915 119.752,257.259 121.963 C 260.248 126.878,254.755 133.404,251.218 129.141 C 250.287 128.020,248.725 128.941,249.090 130.395 C 249.373 131.520,251.425 132.781,253.343 133.008 L 254.948 133.198 255.499 135.799 C 257.013 142.941,261.181 147.208,267.649 148.238 L 270.013 148.614 270.688 151.136 C 271.357 153.636,271.357 153.665,270.742 154.529 C 267.717 158.778,261.476 161.269,256.172 160.346 C 252.470 159.701,252.608 159.844,252.367 156.414 C 252.251 154.764,251.862 152.352,251.502 151.052 L 250.847 148.690 251.705 148.006 C 253.765 146.363,251.847 145.206,249.092 146.430 C 244.614 148.420,237.204 149.588,233.975 148.813 C 231.949 148.327,230.450 146.785,229.479 144.190 C 228.587 141.807,228.564 141.874,230.345 141.638 C 233.610 141.204,236.555 139.007,235.528 137.769 C 234.953 137.077,234.124 137.161,232.825 138.042 C 229.889 140.034,228.082 139.458,227.571 136.366 C 227.070 133.331,227.037 133.440,228.457 133.440 C 229.624 133.440,230.720 132.822,230.720 132.163 C 230.720 131.045,230.316 130.880,227.566 130.878 C 221.994 130.875,221.618 130.425,223.760 126.323 C 225.401 123.180,225.674 120.280,224.830 114.971 C 224.240 111.259,224.192 108.839,224.653 105.920 C 225.275 101.975,227.190 97.050,227.932 97.484 C 228.146 97.609,229.112 98.241,230.080 98.889 M229.280 115.169 C 226.863 116.291,226.051 117.525,227.063 118.537 C 227.717 119.192,227.755 119.186,229.176 118.202 C 230.858 117.035,232.805 116.865,234.508 117.734 C 236.010 118.500,237.120 118.240,237.120 117.121 C 237.120 115.040,232.197 113.814,229.280 115.169 M229.970 121.225 C 228.698 122.630,229.777 125.120,231.657 125.120 C 232.750 125.120,233.920 123.857,233.920 122.677 C 233.920 120.923,231.161 119.909,229.970 121.225 M276.074 162.080 C 284.743 176.153,287.054 185.437,286.108 202.400 C 285.758 208.667,285.364 213.625,283.342 237.120 C 282.008 252.628,281.977 257.402,283.152 265.760 C 284.435 274.891,285.062 279.815,284.955 279.939 C 284.865 280.043,239.608 270.055,239.401 269.886 C 239.252 269.764,238.550 260.858,238.105 253.440 C 237.526 243.796,237.000 223.837,237.310 223.302 C 237.470 223.028,239.786 220.544,242.458 217.782 L 247.317 212.761 248.281 213.260 C 249.465 213.872,249.242 214.057,254.754 207.864 C 256.935 205.413,261.874 199.869,265.728 195.544 C 275.056 185.077,276.480 182.757,276.480 178.030 C 276.480 170.888,268.165 164.318,261.558 166.238 C 256.822 167.615,252.546 171.793,243.459 183.920 C 241.185 186.956,239.277 189.440,239.220 189.440 C 239.022 189.440,240.041 184.452,240.985 180.800 C 242.325 175.616,243.260 173.846,246.985 169.440 C 248.771 167.328,250.670 164.780,251.205 163.778 L 252.179 161.955 253.529 162.435 C 258.841 164.324,266.638 162.509,270.686 158.440 C 272.814 156.301,272.300 155.953,276.074 162.080 M267.708 169.462 C 273.258 172.102,275.286 177.562,272.667 182.808 C 271.753 184.638,259.336 199.285,257.997 200.112 C 257.550 200.389,243.467 188.507,243.726 188.072 C 244.327 187.065,249.881 179.847,251.975 177.351 C 259.013 168.963,262.736 167.096,267.708 169.462 M249.175 196.503 C 252.901 199.570,255.961 202.168,255.975 202.275 C 256.026 202.677,249.223 210.079,248.834 210.045 C 248.142 209.984,235.482 199.280,235.634 198.884 C 235.969 198.012,241.788 190.739,242.080 190.828 C 242.256 190.882,245.449 193.436,249.175 196.503 M240.720 207.029 C 243.140 209.023,245.120 210.791,245.120 210.958 C 245.120 211.487,233.622 223.138,231.880 224.374 C 229.193 226.280,227.565 226.722,217.440 228.291 C 196.048 231.608,187.315 232.942,186.444 233.029 C 185.455 233.127,182.274 225.423,183.168 225.093 C 183.361 225.022,186.544 224.050,190.240 222.933 C 193.936 221.817,203.252 218.987,210.942 216.645 L 224.925 212.387 230.123 207.479 C 234.606 203.247,235.391 202.629,235.821 202.988 C 236.095 203.217,238.300 205.036,240.720 207.029 M180.480 222.691 C 180.480 222.947,176.923 224.320,176.258 224.320 C 174.945 224.320,178.576 222.520,180.080 222.425 C 180.300 222.411,180.480 222.531,180.480 222.691 M181.411 229.361 C 182.011 231.076,182.571 232.673,182.656 232.908 C 182.762 233.204,182.580 233.303,182.066 233.228 C 181.272 233.113,178.687 227.523,179.024 226.647 C 179.512 225.375,180.350 226.327,181.411 229.361 M177.543 230.880 C 178.973 234.479,179.042 234.289,176.160 234.699 C 175.280 234.824,173.912 235.149,173.120 235.421 C 172.246 235.721,170.423 235.932,168.480 235.958 L 165.280 236.000 163.285 234.668 C 158.373 231.387,153.715 231.030,147.440 233.454 C 145.865 234.062,144.410 234.554,144.208 234.547 C 143.374 234.518,147.214 231.496,149.440 230.430 L 151.840 229.280 158.240 229.243 C 164.643 229.205,171.769 228.529,174.512 227.699 C 176.164 227.199,176.020 227.048,177.543 230.880 M157.440 234.690 C 159.699 235.412,159.765 235.458,158.560 235.481 C 157.397 235.504,154.560 234.521,154.560 234.096 C 154.560 233.810,154.916 233.884,157.440 234.690 M233.647 256.160 C 232.628 257.216,229.579 260.456,226.871 263.360 C 219.151 271.638,218.950 271.736,207.117 272.980 C 197.243 274.018,197.366 274.024,199.730 272.663 C 202.586 271.019,208.065 269.454,211.009 269.441 C 212.717 269.434,218.862 261.900,226.673 250.240 L 234.712 238.240 235.106 246.240 L 235.499 254.240 233.647 256.160 M236.226 266.557 L 236.320 269.914 229.760 270.604 C 226.152 270.984,223.177 271.273,223.149 271.247 C 223.122 271.221,225.930 268.189,229.389 264.510 L 235.680 257.820 235.906 260.510 C 236.031 261.989,236.175 264.711,236.226 266.557 M261.568 277.597 C 274.574 280.497,285.292 282.945,285.385 283.038 C 285.858 283.511,286.177 290.496,285.845 293.124 C 285.202 298.219,283.954 300.069,280.693 300.762 C 275.532 301.859,250.604 302.041,230.080 301.133 C 218.075 300.601,203.276 299.862,200.272 299.644 C 197.776 299.462,197.473 299.501,197.185 300.041 C 196.991 300.406,196.599 314.852,196.183 336.960 C 195.807 356.936,195.419 374.468,195.321 375.920 L 195.143 378.560 188.481 378.560 L 181.820 378.560 181.627 377.040 C 181.146 373.253,173.760 286.547,173.760 284.690 C 173.760 279.931,172.394 280.381,195.429 277.550 C 206.127 276.235,219.848 274.537,225.920 273.775 C 231.992 273.014,237.176 272.376,237.440 272.358 C 237.704 272.340,248.562 274.698,261.568 277.597 M172.160 279.471 C 172.160 279.532,171.938 280.026,171.668 280.569 C 170.706 282.496,170.868 285.055,174.856 330.886 C 177.069 356.321,178.880 377.453,178.880 377.846 C 178.880 378.539,178.783 378.560,175.520 378.560 C 173.144 378.560,172.160 378.449,172.160 378.181 C 172.160 377.972,170.360 357.084,168.160 331.764 C 163.481 277.907,163.647 281.451,165.752 280.324 C 166.639 279.850,172.160 279.114,172.160 279.471 M181.600 385.760 L 181.600 390.240 178.160 390.331 L 174.720 390.422 174.720 385.760 L 174.720 381.098 178.160 381.189 L 181.600 381.280 181.600 385.760 M193.280 385.760 L 193.280 390.400 188.800 390.400 L 184.320 390.400 184.320 385.760 L 184.320 381.120 188.800 381.120 L 193.280 381.120 193.280 385.760 " stroke="none" fill="#d74367" fill-rule="evenodd"></path><path id="path2" d="M131.840 20.386 C 130.040 20.676,127.889 21.562,126.604 22.543 C 125.358 23.494,124.992 23.599,122.374 23.748 C 119.263 23.925,117.352 24.638,116.259 26.027 C 115.697 26.741,115.495 26.782,113.268 26.642 C 110.668 26.479,108.331 26.821,104.688 27.897 C 101.736 28.769,101.679 28.892,102.875 31.760 C 103.076 32.243,102.918 32.320,101.714 32.321 C 99.239 32.323,97.322 34.056,95.884 37.590 C 95.157 39.377,95.098 39.432,93.808 39.528 C 90.299 39.790,87.603 43.944,86.388 50.962 C 85.860 54.009,85.915 54.080,88.826 54.080 L 91.271 54.080 91.045 55.280 C 90.445 58.461,90.862 64.122,91.721 64.452 C 92.983 64.936,99.552 62.362,100.919 60.847 L 101.518 60.183 102.839 61.076 C 107.285 64.083,108.825 64.538,109.584 63.071 C 110.270 61.744,111.874 55.852,112.140 53.680 C 112.325 52.177,112.476 51.840,112.964 51.840 C 113.293 51.840,113.651 51.696,113.760 51.520 C 114.120 50.938,114.426 51.185,114.850 52.400 C 115.950 55.549,116.628 55.686,120.000 53.439 L 122.400 51.841 122.494 53.728 C 122.587 55.569,121.694 59.108,120.892 60.080 C 120.685 60.330,119.727 60.480,118.336 60.480 C 115.849 60.480,114.520 61.333,114.041 63.239 C 113.451 65.584,115.081 76.751,116.471 79.894 C 116.832 80.711,117.077 81.429,117.015 81.491 C 116.954 81.553,104.316 81.567,88.932 81.522 L 60.960 81.440 62.965 80.675 C 65.751 79.613,65.759 79.749,62.403 70.880 C 60.804 66.656,59.125 62.217,58.671 61.016 L 57.846 58.832 56.923 59.716 C 55.727 60.861,55.552 60.070,59.062 69.380 C 60.747 73.847,62.058 77.677,61.976 77.890 C 61.839 78.246,54.980 80.968,54.234 80.963 C 54.055 80.961,52.831 78.085,51.514 74.571 L 49.120 68.182 48.130 69.350 L 47.140 70.518 49.169 75.819 C 50.285 78.735,51.199 81.228,51.199 81.360 C 51.200 81.492,48.737 81.600,45.726 81.600 L 40.253 81.600 40.375 80.320 C 40.442 79.616,40.458 79.040,40.411 79.040 C 40.322 79.040,37.062 83.431,36.729 84.000 C 36.604 84.213,59.690 84.293,105.791 84.239 L 175.040 84.157 175.040 86.719 L 175.040 89.280 104.026 89.280 L 33.012 89.280 32.346 90.358 C 31.980 90.951,31.680 91.527,31.680 91.638 C 31.680 91.749,55.152 91.840,83.840 91.840 L 136.000 91.840 136.000 99.616 C 136.000 108.904,135.605 108.160,140.533 108.160 C 145.303 108.160,144.960 108.840,144.960 99.381 L 144.960 91.840 160.896 91.840 C 172.864 91.840,176.928 91.744,177.216 91.456 C 177.477 91.195,177.600 89.678,177.600 86.720 C 177.600 83.762,177.477 82.245,177.216 81.984 C 176.926 81.694,172.011 81.600,157.056 81.600 C 146.179 81.600,137.280 81.523,137.280 81.429 C 137.280 81.335,137.484 80.939,137.734 80.549 C 139.023 78.537,140.231 72.839,140.643 66.827 C 140.969 62.075,139.892 60.480,136.355 60.480 C 134.251 60.480,134.213 60.326,135.710 57.826 C 138.466 53.224,141.263 51.100,141.582 53.368 C 142.146 57.376,144.632 64.517,145.535 64.723 C 146.249 64.885,147.494 64.261,150.271 62.350 L 152.542 60.788 154.356 61.880 C 157.717 63.904,162.570 64.857,163.231 63.622 C 163.605 62.924,163.457 56.847,163.021 55.008 C 162.826 54.187,162.856 54.171,165.172 53.888 C 168.047 53.535,168.146 53.254,166.907 48.934 C 165.054 42.476,161.670 38.584,158.721 39.520 C 158.225 39.677,157.932 39.344,157.117 37.696 C 154.843 33.099,151.802 31.594,148.253 33.313 L 146.863 33.985 146.252 33.208 C 145.695 32.500,143.646 31.296,142.365 30.924 C 142.064 30.837,141.690 30.132,141.466 29.227 C 139.948 23.117,136.209 19.682,131.840 20.386 M136.030 24.180 C 138.019 26.070,139.352 30.119,139.723 35.396 C 139.967 38.867,139.736 39.109,138.332 36.850 C 136.679 34.191,133.336 33.199,130.226 34.443 L 128.919 34.966 127.823 33.904 C 125.842 31.984,125.205 28.519,126.506 26.740 C 127.404 25.512,130.721 27.774,131.378 30.062 C 131.760 31.396,132.572 31.979,133.360 31.486 C 134.908 30.517,133.296 26.627,130.651 24.949 L 129.175 24.013 130.268 23.521 C 132.063 22.714,134.817 23.029,136.030 24.180 M121.651 27.351 C 119.594 29.694,119.446 33.920,121.421 33.920 C 122.358 33.920,122.881 33.114,122.670 31.997 C 122.587 31.558,122.663 30.840,122.839 30.400 L 123.159 29.600 123.183 30.400 C 123.217 31.551,124.545 34.247,125.760 35.632 C 127.077 37.131,126.836 37.418,125.180 36.322 C 123.751 35.376,121.328 34.560,119.949 34.560 C 119.055 34.560,119.040 34.529,119.040 32.708 C 119.040 31.491,118.822 30.427,118.404 29.608 C 117.513 27.860,119.062 26.289,121.713 26.253 L 122.626 26.240 121.651 27.351 M115.711 30.182 C 116.684 31.312,116.702 31.821,115.760 31.541 C 113.168 30.770,110.286 31.165,109.913 32.342 C 109.541 33.513,110.297 33.962,112.288 33.753 C 114.854 33.484,116.416 34.417,115.704 35.793 C 113.807 39.463,109.417 37.884,106.200 32.374 C 105.039 30.387,105.089 30.304,107.840 29.644 C 111.236 28.830,114.755 29.070,115.711 30.182 M144.267 34.980 C 144.961 35.722,144.979 35.833,144.525 36.530 C 143.105 38.706,143.248 41.938,144.848 43.839 C 145.306 44.382,145.626 44.867,145.560 44.916 C 145.494 44.964,144.920 45.302,144.284 45.665 L 143.129 46.326 141.084 45.473 C 139.659 44.878,139.048 44.453,139.067 44.070 C 139.081 43.767,139.117 42.925,139.147 42.198 C 139.200 40.882,139.204 40.877,140.286 41.052 C 142.437 41.402,142.770 40.782,142.519 36.898 C 142.278 33.173,142.426 33.011,144.267 34.980 M101.455 35.819 C 100.179 37.611,99.793 39.231,100.449 40.041 C 101.231 41.007,101.962 40.648,102.696 38.935 C 103.360 37.388,104.749 36.099,105.460 36.372 C 106.042 36.595,106.049 36.544,105.222 37.946 C 104.787 38.684,104.455 39.921,104.342 41.232 L 104.160 43.334 102.732 43.746 C 101.448 44.117,101.273 44.102,100.994 43.599 C 100.610 42.909,99.286 41.582,98.309 40.908 L 97.578 40.404 98.223 38.680 C 98.981 36.653,100.484 34.880,101.444 34.880 L 102.124 34.880 101.455 35.819 M152.735 35.846 C 153.186 36.201,153.998 37.377,154.539 38.460 L 155.523 40.427 154.115 41.776 C 153.340 42.518,152.609 43.434,152.489 43.812 C 152.133 44.934,148.667 44.056,147.043 42.432 C 145.875 41.264,146.121 37.139,147.335 37.536 C 148.057 37.773,149.120 39.803,149.120 40.943 C 149.120 42.722,150.129 43.426,151.177 42.377 C 152.210 41.345,151.433 37.411,149.956 36.188 C 148.699 35.148,151.421 34.813,152.735 35.846 M134.968 37.121 C 136.958 38.335,137.190 42.067,135.530 46.156 L 134.655 48.313 133.232 47.291 C 129.569 44.660,127.310 41.346,128.017 39.639 C 128.511 38.447,128.745 38.480,129.225 39.809 C 130.288 42.748,133.309 44.484,133.934 42.515 C 134.077 42.065,133.776 41.502,132.862 40.510 C 130.073 37.485,131.582 35.057,134.968 37.121 M121.991 37.644 C 122.121 37.725,121.732 38.225,121.127 38.757 C 118.906 40.707,117.307 45.901,118.546 47.140 C 119.707 48.302,120.960 47.377,120.960 45.358 C 120.960 43.726,121.981 41.555,123.249 40.487 C 124.476 39.455,125.120 39.450,125.120 40.474 C 125.120 40.910,125.346 41.833,125.623 42.525 C 126.073 43.648,126.075 43.881,125.646 44.711 C 124.640 46.656,117.995 52.212,117.401 51.604 C 116.289 50.466,114.899 43.462,115.330 41.167 C 115.855 38.367,119.792 36.285,121.991 37.644 M108.709 40.744 C 108.709 43.042,109.510 44.552,110.658 44.419 C 111.592 44.312,111.791 43.176,111.223 41.200 C 110.994 40.400,111.047 40.320,111.805 40.320 C 112.632 40.320,112.640 40.342,112.648 42.800 C 112.652 44.164,112.776 45.801,112.924 46.437 C 113.403 48.495,112.335 49.412,111.569 47.600 C 111.028 46.321,109.725 44.996,108.513 44.494 C 106.952 43.847,106.300 40.970,107.369 39.445 C 108.155 38.322,108.709 38.859,108.709 40.744 M95.185 42.366 C 95.770 42.576,95.757 42.625,94.969 43.142 C 93.182 44.314,91.707 47.207,92.363 48.254 C 92.971 49.226,94.351 49.137,94.726 48.101 C 95.384 46.288,95.845 45.689,97.061 45.069 C 97.743 44.720,98.341 44.481,98.388 44.538 C 101.045 47.712,97.810 51.104,91.798 51.447 L 88.889 51.613 89.123 50.526 C 90.218 45.443,92.820 41.266,94.397 42.059 C 94.487 42.104,94.841 42.242,95.185 42.366 M161.073 42.825 C 162.011 43.670,163.139 45.790,164.003 48.330 C 165.120 51.613,165.160 51.520,162.627 51.520 C 156.979 51.520,153.639 49.327,154.430 46.137 C 154.943 44.067,156.938 44.855,158.110 47.590 C 158.641 48.829,158.824 48.990,159.598 48.901 C 161.318 48.704,160.813 46.025,158.654 43.887 L 157.333 42.579 158.106 42.263 C 159.052 41.877,160.279 42.109,161.073 42.825 M107.184 46.818 C 109.726 47.697,110.257 51.483,108.671 57.422 C 108.204 59.173,107.758 60.669,107.680 60.747 C 106.966 61.461,99.431 55.010,99.019 53.333 C 98.741 52.197,100.654 50.087,101.020 51.127 C 102.268 54.674,104.525 57.067,105.920 56.320 C 106.897 55.797,106.690 54.772,105.304 53.269 C 103.662 51.488,103.009 49.182,103.562 47.120 C 103.785 46.285,105.283 46.160,107.184 46.818 M128.830 47.074 C 131.110 49.592,127.563 60.480,124.464 60.480 C 123.697 60.480,123.695 60.578,124.518 57.867 C 125.066 56.063,125.168 55.071,125.051 52.697 L 124.905 49.760 126.372 48.098 C 128.071 46.174,128.031 46.190,128.830 47.074 M140.080 47.841 C 142.164 48.622,142.161 48.688,140.012 49.740 C 137.935 50.756,135.054 53.764,133.435 56.606 C 131.087 60.728,131.303 60.480,130.058 60.480 C 129.425 60.480,128.955 60.372,129.015 60.240 C 129.074 60.108,129.749 58.734,130.515 57.187 C 131.592 55.012,131.955 53.866,132.114 52.141 L 132.320 49.909 133.534 50.735 C 135.217 51.881,135.676 51.676,136.960 49.201 C 137.576 48.013,138.152 47.080,138.240 47.127 C 138.328 47.173,139.156 47.495,140.080 47.841 M150.015 49.184 C 150.114 51.257,149.461 53.133,148.308 54.090 C 147.027 55.153,147.204 56.960,148.588 56.960 C 149.906 56.960,152.640 53.287,152.640 51.516 C 152.640 50.876,152.691 50.885,153.840 51.731 C 154.500 52.217,155.092 52.648,155.157 52.690 C 155.982 53.230,151.707 58.222,148.566 60.385 C 146.545 61.777,146.618 61.829,145.446 58.166 C 143.011 50.557,144.125 46.897,148.800 47.141 L 149.920 47.200 150.015 49.184 M95.035 54.410 C 94.378 55.638,94.768 58.384,95.618 58.505 C 96.641 58.650,97.280 58.020,97.280 56.868 L 97.280 55.893 98.387 57.147 C 98.995 57.836,99.499 58.489,99.507 58.597 C 99.532 58.970,97.119 60.379,95.280 61.065 L 93.440 61.751 93.399 60.396 C 93.277 56.394,93.863 53.760,94.875 53.760 C 95.286 53.760,95.316 53.884,95.035 54.410 M160.215 54.960 C 160.492 55.620,160.794 57.368,160.887 58.845 L 161.056 61.529 159.847 61.302 C 155.738 60.532,154.312 59.159,155.726 57.335 C 156.793 55.959,156.800 55.956,156.805 56.855 C 156.812 58.169,157.219 58.626,158.275 58.506 C 159.262 58.393,159.599 56.338,158.934 54.480 C 158.472 53.186,159.658 53.630,160.215 54.960 M137.563 63.242 C 139.282 64.446,137.087 77.507,134.673 80.436 L 133.713 81.600 127.205 81.600 L 120.697 81.600 119.897 80.650 C 118.447 78.926,117.385 74.622,116.793 68.067 C 116.324 62.868,116.151 63.090,120.751 62.959 C 132.130 62.634,136.808 62.713,137.563 63.242 M249.840 81.186 C 250.236 81.262,250.884 81.262,251.280 81.186 C 251.676 81.110,251.352 81.047,250.560 81.047 C 249.768 81.047,249.444 81.110,249.840 81.186 M226.486 85.032 C 227.061 85.103,227.925 85.102,228.406 85.029 C 228.887 84.956,228.416 84.897,227.360 84.899 C 226.304 84.901,225.911 84.961,226.486 85.032 M142.080 98.720 L 142.080 105.600 140.320 105.600 L 138.560 105.600 138.560 98.933 C 138.560 91.438,138.448 91.840,140.533 91.840 L 142.080 91.840 142.080 98.720 M279.465 105.440 C 279.466 106.672,279.524 107.137,279.594 106.473 C 279.663 105.809,279.662 104.801,279.591 104.233 C 279.520 103.665,279.464 104.208,279.465 105.440 M225.361 120.480 C 225.364 121.184,225.430 121.434,225.506 121.036 C 225.583 120.638,225.580 120.062,225.500 119.756 C 225.420 119.450,225.357 119.776,225.361 120.480 M257.994 125.440 C 257.994 126.056,258.060 126.308,258.141 126.000 C 258.221 125.692,258.221 125.188,258.141 124.880 C 258.060 124.572,257.994 124.824,257.994 125.440 M286.161 198.560 C 286.164 199.264,286.230 199.514,286.306 199.116 C 286.383 198.718,286.380 198.142,286.300 197.836 C 286.220 197.530,286.157 197.856,286.161 198.560 M43.613 210.000 C 41.414 212.406,41.376 215.506,43.524 217.441 C 44.734 218.531,44.875 219.386,44.132 221.115 C 43.274 223.108,43.403 223.812,44.645 223.934 C 47.366 224.202,48.045 218.263,45.575 215.794 C 44.267 214.485,44.215 213.788,45.292 211.950 C 46.566 209.777,45.233 208.229,43.613 210.000 M225.740 211.600 L 224.800 212.640 225.840 211.700 C 226.412 211.183,226.880 210.715,226.880 210.660 C 226.880 210.413,226.616 210.631,225.740 211.600 M49.863 211.746 C 48.373 213.453,48.184 215.780,49.440 216.960 C 50.328 217.794,50.423 218.488,49.863 220.036 C 49.130 222.065,51.032 222.895,52.164 221.040 C 53.094 219.515,53.020 217.270,52.000 216.058 C 51.051 214.931,51.024 214.636,51.754 213.402 C 52.681 211.831,51.043 210.395,49.863 211.746 M246.063 214.000 L 244.960 215.200 246.160 214.097 C 247.277 213.071,247.507 212.800,247.263 212.800 C 247.209 212.800,246.669 213.340,246.063 214.000 M309.182 218.835 C 308.688 219.148,309.188 215.768,302.570 263.520 C 299.667 284.464,297.214 302.050,297.119 302.600 L 296.946 303.600 285.513 303.846 C 269.507 304.191,234.685 304.212,220.960 303.886 C 210.848 303.646,209.362 303.672,208.800 304.100 C 208.186 304.568,207.639 324.328,207.387 355.120 L 207.360 358.400 202.880 358.400 L 198.400 358.400 198.400 359.680 L 198.400 360.960 202.911 360.960 L 207.422 360.960 207.234 369.200 C 207.130 373.732,206.958 382.516,206.852 388.720 L 206.659 400.000 207.969 400.000 C 209.270 400.000,209.280 399.990,209.285 398.800 C 209.288 398.140,209.574 379.888,209.920 358.240 C 210.266 336.592,210.552 318.700,210.555 318.480 C 210.559 318.180,211.640 318.080,214.880 318.080 C 217.256 318.080,219.200 318.188,219.200 318.320 C 219.199 318.452,218.120 336.200,216.801 357.760 C 215.481 379.320,214.402 397.572,214.401 398.320 L 214.400 399.680 215.639 399.680 L 216.878 399.680 217.099 394.800 C 217.220 392.116,217.392 389.668,217.481 389.360 C 217.670 388.708,265.280 388.464,265.280 389.115 C 265.280 389.456,272.256 387.072,272.774 386.554 C 272.979 386.349,263.555 386.240,245.486 386.240 L 217.885 386.240 217.982 384.720 L 218.080 383.200 249.806 383.128 L 281.531 383.055 284.046 381.848 L 286.560 380.640 252.217 380.559 L 217.874 380.477 218.054 378.799 C 218.153 377.875,218.379 374.456,218.557 371.200 C 218.735 367.944,218.967 364.308,219.073 363.120 L 219.265 360.960 259.676 360.960 L 300.087 360.960 300.272 362.320 C 300.373 363.068,300.553 365.802,300.671 368.396 L 300.886 373.113 302.123 372.417 C 302.993 371.928,303.360 371.506,303.360 370.994 C 303.360 369.972,300.541 323.585,300.295 320.560 L 300.093 318.080 304.404 318.080 L 308.715 318.080 308.915 323.600 C 309.025 326.636,309.193 337.184,309.289 347.040 C 309.385 356.896,309.539 365.571,309.631 366.318 L 309.799 367.677 310.969 366.882 L 312.139 366.087 312.041 363.508 L 311.943 360.929 315.612 360.980 L 319.281 361.031 320.921 359.807 C 323.116 358.168,323.260 358.227,317.331 358.334 L 312.102 358.429 311.893 347.934 C 311.778 342.163,311.602 329.736,311.502 320.320 L 311.319 303.200 314.680 261.290 C 317.082 231.344,317.945 219.263,317.702 218.970 C 317.312 218.500,309.895 218.383,309.182 218.835 M315.200 221.907 C 315.200 222.341,313.760 240.843,312.000 263.024 C 310.240 285.205,308.800 303.427,308.800 303.517 C 308.800 303.606,306.716 303.680,304.168 303.680 L 299.536 303.680 299.692 302.800 C 299.831 302.015,301.419 290.595,308.648 238.400 C 309.781 230.216,310.796 222.980,310.903 222.320 L 311.096 221.120 313.148 221.120 C 315.115 221.120,315.200 221.153,315.200 221.907 M155.448 226.475 C 156.201 226.542,157.353 226.541,158.008 226.473 C 158.664 226.404,158.048 226.349,156.640 226.350 C 155.232 226.351,154.696 226.407,155.448 226.475 M37.724 228.000 C 36.391 228.725,36.061 229.972,36.308 233.350 C 36.760 239.525,38.137 246.322,39.049 246.885 C 40.174 247.581,38.104 247.680,22.444 247.680 L 5.529 247.680 5.840 249.040 L 6.151 250.400 111.697 250.319 L 217.242 250.238 218.102 250.978 C 219.572 252.242,219.615 255.930,218.176 257.271 L 217.479 257.920 113.060 257.920 L 8.640 257.920 8.662 258.640 C 8.726 260.660,5.342 260.492,45.660 260.483 L 82.188 260.475 82.365 262.477 C 82.558 264.658,85.460 353.123,85.448 356.418 L 85.440 358.437 81.439 358.338 C 76.847 358.225,76.909 358.187,79.090 359.816 C 80.703 361.019,80.799 361.046,83.250 360.987 L 85.760 360.927 85.767 362.783 C 85.773 364.581,85.814 364.669,87.047 365.541 L 88.320 366.442 88.319 364.421 C 88.319 363.309,87.753 345.408,87.061 324.640 C 86.370 303.872,85.707 283.496,85.588 279.360 C 85.469 275.224,85.330 271.192,85.279 270.400 C 85.191 269.027,85.064 262.540,85.102 261.360 C 85.119 260.840,85.769 260.800,94.116 260.800 L 103.111 260.800 102.908 264.880 C 102.797 267.124,102.562 274.072,102.387 280.320 C 102.212 286.568,101.495 308.937,100.794 330.028 C 100.093 351.120,99.520 369.513,99.520 370.902 L 99.520 373.427 100.753 374.056 L 101.985 374.685 102.036 370.302 C 102.063 367.892,102.175 364.804,102.284 363.440 L 102.483 360.960 135.281 360.960 L 168.080 360.960 167.880 359.960 C 167.770 359.410,167.680 358.834,167.680 358.680 C 167.680 358.522,153.463 358.400,135.004 358.400 L 102.329 358.400 102.532 354.320 C 102.643 352.076,103.384 330.224,104.177 305.760 C 104.970 281.296,105.682 261.100,105.759 260.880 C 105.871 260.562,117.261 260.480,161.264 260.480 L 216.627 260.480 219.200 256.640 C 221.991 252.474,222.055 252.201,220.747 250.023 C 219.310 247.631,219.797 247.680,197.449 247.680 L 177.501 247.680 178.105 246.960 C 178.438 246.564,178.235 246.672,177.654 247.200 L 176.598 248.160 131.213 248.160 C 86.283 248.160,85.820 248.154,85.099 247.520 C 84.698 247.168,84.475 247.060,84.604 247.280 C 84.790 247.598,81.896 247.680,70.572 247.680 L 56.307 247.680 56.960 246.400 C 57.319 245.696,57.832 245.120,58.099 245.120 C 63.376 245.120,65.526 236.326,61.163 232.591 C 60.389 231.929,59.840 231.179,59.840 230.784 C 59.840 229.671,59.130 228.460,58.194 227.976 C 56.908 227.311,38.953 227.332,37.724 228.000 M57.169 230.573 C 57.801 232.219,56.077 242.460,54.721 245.118 C 52.912 248.664,42.733 248.591,41.113 245.020 C 39.928 242.408,38.284 231.364,38.926 230.326 C 39.253 229.797,56.964 230.037,57.169 230.573 M60.484 235.600 C 61.667 237.540,61.024 240.682,59.196 241.896 C 58.466 242.380,58.451 242.372,58.665 241.597 C 58.785 241.159,59.054 239.396,59.261 237.680 C 59.690 234.130,59.639 234.215,60.484 235.600 M143.887 237.515 C 143.685 237.644,145.824 237.726,148.640 237.696 C 153.764 237.642,153.328 237.524,147.407 237.365 C 145.673 237.318,144.089 237.386,143.887 237.515 M110.480 237.680 C 116.244 237.729,125.676 237.729,131.440 237.680 C 137.204 237.631,132.488 237.591,120.960 237.591 C 109.432 237.591,104.716 237.631,110.480 237.680 M176.407 243.520 C 176.407 244.312,176.470 244.636,176.546 244.240 C 176.622 243.844,176.622 243.196,176.546 242.800 C 176.470 242.404,176.407 242.728,176.407 243.520 M111.145 245.680 C 123.083 245.726,142.523 245.726,154.345 245.680 C 166.167 245.633,156.400 245.595,132.640 245.595 C 108.880 245.595,99.207 245.633,111.145 245.680 M214.071 262.960 L 212.000 265.120 214.160 263.049 C 215.348 261.910,216.320 260.938,216.320 260.889 C 216.320 260.654,215.994 260.954,214.071 262.960 M161.361 284.640 C 161.364 285.344,161.430 285.594,161.506 285.196 C 161.583 284.798,161.580 284.222,161.500 283.916 C 161.420 283.610,161.357 283.936,161.361 284.640 M235.280 301.341 C 235.588 301.421,236.092 301.421,236.400 301.341 C 236.708 301.260,236.456 301.194,235.840 301.194 C 235.224 301.194,234.972 301.260,235.280 301.341 M246.006 301.672 C 246.581 301.743,247.445 301.742,247.926 301.669 C 248.407 301.596,247.936 301.537,246.880 301.539 C 245.824 301.541,245.431 301.601,246.006 301.672 M270.800 301.661 C 271.108 301.741,271.612 301.741,271.920 301.661 C 272.228 301.580,271.976 301.514,271.360 301.514 C 270.744 301.514,270.492 301.580,270.800 301.661 M28.800 303.822 C 28.800 303.900,29.102 304.476,29.472 305.102 L 30.143 306.240 38.592 306.240 L 47.040 306.240 47.040 310.872 L 47.040 315.505 41.757 315.592 L 36.474 315.680 37.328 316.880 L 38.182 318.080 42.568 318.080 L 46.953 318.080 47.157 319.565 C 47.268 320.381,47.360 323.013,47.360 325.413 L 47.360 329.778 48.720 331.324 L 50.080 332.871 49.879 325.555 C 49.769 321.532,49.661 315.190,49.639 311.463 C 49.606 305.764,49.520 304.606,49.097 304.183 C 48.622 303.708,28.800 303.355,28.800 303.822 M308.729 310.961 L 308.818 315.522 259.769 315.441 L 210.720 315.360 210.630 311.217 C 210.580 308.938,210.612 306.886,210.700 306.656 C 210.832 306.314,219.757 306.253,259.750 306.319 L 308.640 306.400 308.729 310.961 M199.142 318.080 C 199.142 319.224,199.201 319.692,199.271 319.120 C 199.342 318.548,199.342 317.612,199.271 317.040 C 199.201 316.468,199.142 316.936,199.142 318.080 M297.619 318.800 C 297.630 319.196,298.182 328.160,298.847 338.720 C 299.512 349.280,299.999 358.028,299.929 358.160 C 299.859 358.292,281.739 358.400,259.661 358.400 L 219.520 358.400 219.521 356.720 C 219.522 355.796,220.025 346.904,220.640 336.960 C 221.255 327.016,221.758 318.700,221.759 318.480 C 221.760 318.162,229.558 318.080,259.680 318.080 L 297.600 318.080 297.619 318.800 M198.822 334.080 C 198.822 335.224,198.881 335.692,198.951 335.120 C 199.022 334.548,199.022 333.612,198.951 333.040 C 198.881 332.468,198.822 332.936,198.822 334.080 M198.499 349.920 C 198.501 350.976,198.561 351.369,198.632 350.794 C 198.703 350.219,198.702 349.355,198.629 348.874 C 198.556 348.393,198.497 348.864,198.499 349.920 M198.179 365.920 C 198.181 366.976,198.241 367.369,198.312 366.794 C 198.383 366.219,198.382 365.355,198.309 364.874 C 198.236 364.393,198.177 364.864,198.179 365.920 M177.991 381.353 L 181.422 381.461 181.525 385.771 L 181.628 390.081 181.614 385.680 L 181.600 381.280 178.080 381.262 L 174.560 381.244 177.991 381.353 M186.480 381.358 C 187.756 381.418,189.844 381.418,191.120 381.358 C 192.396 381.297,191.352 381.247,188.800 381.247 C 186.248 381.247,185.204 381.297,186.480 381.358 M195.980 381.536 C 195.892 381.765,195.865 383.889,195.920 386.256 L 196.020 390.560 196.090 386.023 C 196.152 382.007,196.224 381.470,196.720 381.341 C 197.245 381.203,197.244 381.192,196.710 381.157 C 196.396 381.137,196.068 381.307,195.980 381.536 M197.246 395.680 C 197.247 398.144,197.297 399.110,197.358 397.826 C 197.419 396.542,197.418 394.526,197.357 393.346 C 197.296 392.166,197.246 393.216,197.246 395.680 " stroke="none" fill="#adacac" fill-rule="evenodd"></path><path id="path3" d="M70.261 162.584 C 68.455 164.171,68.272 162.774,75.801 204.960 C 83.985 250.815,82.946 245.825,84.582 247.121 L 85.894 248.160 131.246 248.160 L 176.598 248.160 177.586 247.213 C 180.271 244.641,179.433 239.988,176.119 239.068 C 175.356 238.856,170.992 238.723,164.759 238.722 C 156.155 238.720,154.579 238.648,154.240 238.240 C 153.892 237.820,150.456 237.760,126.880 237.760 C 103.304 237.760,99.868 237.820,99.520 238.240 C 99.047 238.809,89.280 238.968,89.280 238.406 C 89.280 237.476,76.092 164.177,75.790 163.425 C 74.989 161.434,72.076 160.991,70.261 162.584 M73.483 164.824 C 73.682 165.251,76.979 183.216,80.808 204.746 L 87.770 243.892 87.112 244.550 C 86.332 245.330,85.591 245.144,85.348 244.106 C 83.187 234.881,71.341 165.032,71.843 164.477 C 72.553 163.692,72.998 163.786,73.483 164.824 M176.137 241.783 C 176.797 242.443,176.781 244.434,176.110 245.175 C 175.602 245.736,173.833 245.760,132.598 245.760 L 89.616 245.760 89.951 244.880 C 90.136 244.396,90.196 243.388,90.084 242.640 L 89.881 241.280 132.758 241.280 C 171.310 241.280,175.685 241.331,176.137 241.783 " stroke="none" fill="#5f55b5" fill-rule="evenodd"></path><path id="path4" d="M101.920 32.000 L 100.960 32.244 102.000 32.282 C 102.572 32.303,103.040 32.176,103.040 32.000 C 103.040 31.824,103.004 31.697,102.960 31.718 C 102.916 31.739,102.448 31.866,101.920 32.000 M127.680 33.760 C 128.277 34.376,128.838 34.880,128.926 34.880 C 129.014 34.880,128.597 34.376,128.000 33.760 C 127.403 33.144,126.842 32.640,126.754 32.640 C 126.666 32.640,127.083 33.144,127.680 33.760 M148.881 40.800 C 148.884 41.504,148.950 41.754,149.026 41.356 C 149.103 40.958,149.100 40.382,149.020 40.076 C 148.940 39.770,148.877 40.096,148.881 40.800 M104.240 46.626 C 104.636 46.702,105.284 46.702,105.680 46.626 C 106.076 46.550,105.752 46.487,104.960 46.487 C 104.168 46.487,103.844 46.550,104.240 46.626 M160.400 51.421 C 160.708 51.501,161.212 51.501,161.520 51.421 C 161.828 51.340,161.576 51.274,160.960 51.274 C 160.344 51.274,160.092 51.340,160.400 51.421 M125.207 53.440 C 125.207 54.232,125.270 54.556,125.346 54.160 C 125.422 53.764,125.422 53.116,125.346 52.720 C 125.270 52.324,125.207 52.648,125.207 53.440 M336.640 107.494 C 336.640 160.321,336.651 161.263,337.259 161.589 C 337.673 161.810,347.605 161.920,367.216 161.920 L 396.555 161.920 396.362 161.200 C 396.256 160.804,396.167 160.228,396.164 159.920 C 396.160 159.391,394.642 159.360,368.800 159.360 C 353.752 159.360,341.440 159.250,341.440 159.115 C 341.440 158.980,342.990 157.324,344.885 155.435 L 348.330 152.000 371.285 152.000 C 396.244 152.000,394.636 152.123,393.928 150.261 L 393.616 149.440 371.368 149.440 L 349.120 149.440 349.120 107.867 L 349.120 66.295 347.849 64.907 L 346.577 63.520 346.569 106.853 L 346.560 150.186 342.884 153.893 L 339.207 157.600 339.204 106.694 L 339.200 55.787 337.920 54.758 L 336.640 53.730 336.640 107.494 M87.913 54.311 C 88.481 54.382,89.489 54.383,90.153 54.314 C 90.817 54.244,90.352 54.186,89.120 54.185 C 87.888 54.184,87.345 54.240,87.913 54.311 M90.641 60.320 C 90.644 61.024,90.710 61.274,90.786 60.876 C 90.863 60.478,90.860 59.902,90.780 59.596 C 90.700 59.290,90.637 59.616,90.641 60.320 M134.692 60.261 C 134.836 60.404,135.585 60.473,136.357 60.415 L 137.760 60.308 136.095 60.154 C 135.180 60.069,134.548 60.117,134.692 60.261 M118.006 60.392 C 118.581 60.463,119.445 60.462,119.926 60.389 C 120.407 60.316,119.936 60.257,118.880 60.259 C 117.824 60.261,117.431 60.321,118.006 60.392 M129.524 60.386 C 129.922 60.463,130.498 60.460,130.804 60.380 C 131.110 60.300,130.784 60.237,130.080 60.241 C 129.376 60.244,129.126 60.310,129.524 60.386 M127.280 62.959 C 129.084 63.016,132.036 63.016,133.840 62.959 C 135.644 62.902,134.168 62.855,130.560 62.855 C 126.952 62.855,125.476 62.902,127.280 62.959 M138.012 65.120 C 138.014 66.000,138.076 66.322,138.150 65.836 C 138.223 65.349,138.221 64.629,138.145 64.236 C 138.069 63.842,138.009 64.240,138.012 65.120 M350.400 107.446 C 350.400 143.118,350.451 147.205,350.903 147.657 C 351.444 148.198,393.282 148.458,393.278 147.920 C 393.277 147.788,393.126 147.140,392.943 146.480 L 392.610 145.280 372.782 145.280 L 352.955 145.280 353.037 108.041 C 353.092 83.524,353.011 70.697,352.800 70.496 C 352.624 70.328,352.012 69.638,351.440 68.963 L 350.400 67.737 350.400 107.446 M252.560 78.621 C 252.868 78.701,253.372 78.701,253.680 78.621 C 253.988 78.540,253.736 78.474,253.120 78.474 C 252.504 78.474,252.252 78.540,252.560 78.621 M40.401 80.480 C 40.404 81.184,40.470 81.434,40.546 81.036 C 40.623 80.638,40.620 80.062,40.540 79.756 C 40.460 79.450,40.397 79.776,40.401 80.480 M119.976 80.720 L 120.752 81.600 125.896 81.529 L 131.040 81.457 125.932 81.360 C 121.183 81.270,120.766 81.213,120.012 80.552 L 119.200 79.840 119.976 80.720 M272.000 87.520 C 272.956 88.488,273.810 89.280,273.898 89.280 C 273.986 89.280,273.276 88.488,272.320 87.520 C 271.364 86.552,270.510 85.760,270.422 85.760 C 270.334 85.760,271.044 86.552,272.000 87.520 M245.213 86.422 C 244.119 86.591,241.527 87.221,239.453 87.822 C 233.048 89.675,224.775 90.638,223.485 89.680 C 223.307 89.548,224.178 90.451,225.421 91.688 C 228.048 94.301,231.390 96.599,238.690 100.811 C 246.168 105.125,248.155 107.396,250.300 114.078 L 251.344 117.332 252.854 117.187 C 259.860 116.514,263.639 126.034,258.432 131.241 L 257.599 132.074 258.052 134.668 C 259.211 141.308,263.516 145.600,269.018 145.600 L 270.080 145.600 270.104 142.640 C 270.118 141.012,270.169 139.464,270.218 139.200 C 270.267 138.936,270.407 137.712,270.529 136.480 C 270.866 133.079,271.522 130.232,273.455 123.794 C 275.953 115.473,276.551 112.347,276.599 107.360 L 276.640 103.200 275.451 100.800 C 270.161 90.120,258.168 84.417,245.213 86.422 M57.545 92.080 C 72.035 92.126,95.651 92.126,110.025 92.080 C 124.399 92.034,112.544 91.996,83.680 91.996 C 54.816 91.996,43.055 92.034,57.545 92.080 M138.773 92.053 C 138.656 92.171,138.560 95.267,138.560 98.933 L 138.560 105.600 140.400 105.541 L 142.240 105.482 140.560 105.364 L 138.880 105.247 138.880 98.720 L 138.880 92.193 140.560 92.076 L 142.240 91.958 140.613 91.899 C 139.719 91.867,138.891 91.936,138.773 92.053 M223.027 93.520 C 224.353 94.933,224.640 95.187,224.640 94.947 C 224.640 94.895,223.956 94.211,223.120 93.427 L 221.600 92.000 223.027 93.520 M231.600 114.466 C 231.996 114.542,232.644 114.542,233.040 114.466 C 233.436 114.390,233.112 114.327,232.320 114.327 C 231.528 114.327,231.204 114.390,231.600 114.466 M272.721 144.160 C 272.724 144.864,272.790 145.114,272.866 144.716 C 272.943 144.318,272.940 143.742,272.860 143.436 C 272.780 143.130,272.717 143.456,272.721 144.160 M236.084 149.026 C 236.482 149.103,237.058 149.100,237.364 149.020 C 237.670 148.940,237.344 148.877,236.640 148.881 C 235.936 148.884,235.686 148.950,236.084 149.026 M249.696 158.080 C 249.696 159.048,249.756 159.444,249.829 158.960 C 249.903 158.476,249.903 157.684,249.829 157.200 C 249.756 156.716,249.696 157.112,249.696 158.080 M257.684 160.550 C 258.171 160.623,258.891 160.621,259.284 160.545 C 259.678 160.469,259.280 160.409,258.400 160.412 C 257.520 160.414,257.198 160.476,257.684 160.550 M272.800 169.920 C 273.487 170.624,274.122 171.200,274.210 171.200 C 274.298 171.200,273.807 170.624,273.120 169.920 C 272.433 169.216,271.798 168.640,271.710 168.640 C 271.622 168.640,272.113 169.216,272.800 169.920 M254.063 170.800 L 252.960 172.000 254.160 170.897 C 255.277 169.871,255.507 169.600,255.263 169.600 C 255.209 169.600,254.669 170.140,254.063 170.800 M241.188 180.080 C 240.184 183.886,239.275 188.385,239.421 188.824 C 239.481 189.002,241.216 186.894,243.278 184.140 C 245.340 181.386,246.833 179.293,246.596 179.490 C 246.270 179.761,246.057 179.717,245.722 179.311 C 245.087 178.539,242.853 176.960,242.398 176.960 C 242.178 176.960,241.655 178.310,241.188 180.080 M276.561 178.080 C 276.564 178.784,276.630 179.034,276.706 178.636 C 276.783 178.238,276.780 177.662,276.700 177.356 C 276.620 177.050,276.557 177.376,276.561 178.080 M286.197 194.400 C 286.198 196.160,286.251 196.839,286.316 195.909 C 286.381 194.979,286.380 193.539,286.315 192.709 C 286.249 191.879,286.196 192.640,286.197 194.400 M231.188 202.640 L 229.600 204.320 231.280 202.732 C 232.841 201.256,233.107 200.960,232.868 200.960 C 232.817 200.960,232.061 201.716,231.188 202.640 M230.711 206.960 L 228.640 209.120 230.800 207.049 C 231.988 205.910,232.960 204.938,232.960 204.889 C 232.960 204.654,232.634 204.954,230.711 206.960 M224.460 209.040 L 223.520 210.080 224.560 209.140 C 225.132 208.623,225.600 208.155,225.600 208.100 C 225.600 207.853,225.336 208.071,224.460 209.040 M242.551 213.680 L 240.480 215.840 242.640 213.769 C 243.828 212.630,244.800 211.658,244.800 211.609 C 244.800 211.374,244.474 211.674,242.551 213.680 M242.272 218.086 L 237.120 223.345 237.122 225.992 C 237.131 236.131,238.871 269.481,239.414 269.895 C 239.571 270.016,269.519 276.571,270.080 276.608 C 270.795 276.655,270.869 274.219,270.214 272.221 C 269.423 269.808,268.009 267.851,263.867 263.433 C 254.305 253.236,251.533 243.084,250.508 214.509 C 250.448 212.859,250.448 212.859,249.704 213.346 C 249.036 213.784,248.882 213.782,248.192 213.331 C 247.432 212.833,247.372 212.881,242.272 218.086 M311.440 218.476 C 312.452 218.540,314.108 218.540,315.120 218.476 C 316.132 218.413,315.304 218.361,313.280 218.361 C 311.256 218.361,310.428 218.413,311.440 218.476 M234.560 221.920 C 233.783 222.712,233.219 223.360,233.307 223.360 C 233.395 223.360,234.103 222.712,234.880 221.920 C 235.657 221.128,236.221 220.480,236.133 220.480 C 236.045 220.480,235.337 221.128,234.560 221.920 M159.440 226.461 C 159.748 226.541,160.252 226.541,160.560 226.461 C 160.868 226.380,160.616 226.314,160.000 226.314 C 159.384 226.314,159.132 226.380,159.440 226.461 M179.263 226.514 C 178.571 226.953,181.144 233.087,182.079 233.227 C 182.471 233.286,182.739 233.201,182.676 233.038 C 182.612 232.876,182.057 231.279,181.443 229.491 C 180.348 226.306,180.108 225.978,179.263 226.514 M160.080 229.341 C 160.388 229.421,160.892 229.421,161.200 229.341 C 161.508 229.260,161.256 229.194,160.640 229.194 C 160.024 229.194,159.772 229.260,160.080 229.341 M38.840 230.549 C 38.741 230.808,38.734 231.204,38.825 231.429 C 38.915 231.655,39.001 231.523,39.015 231.136 C 39.037 230.509,39.242 230.419,40.880 230.316 L 42.720 230.201 40.870 230.141 C 39.498 230.096,38.973 230.201,38.840 230.549 M57.034 232.640 C 57.034 233.256,57.100 233.508,57.181 233.200 C 57.261 232.892,57.261 232.388,57.181 232.080 C 57.100 231.772,57.034 232.024,57.034 232.640 M167.280 236.066 C 167.676 236.142,168.324 236.142,168.720 236.066 C 169.116 235.990,168.792 235.927,168.000 235.927 C 167.208 235.927,166.884 235.990,167.280 236.066 M89.560 238.489 C 89.697 238.626,91.959 238.697,94.585 238.648 L 99.360 238.558 94.335 238.399 C 91.571 238.312,89.423 238.352,89.560 238.489 M154.521 238.489 C 154.676 238.644,155.216 238.718,155.721 238.655 C 156.567 238.550,156.545 238.528,155.440 238.375 C 154.752 238.279,154.360 238.328,154.521 238.489 M158.326 238.312 C 158.901 238.383,159.765 238.382,160.246 238.309 C 160.727 238.236,160.256 238.177,159.200 238.179 C 158.144 238.181,157.751 238.241,158.326 238.312 M234.476 238.640 C 234.409 238.772,234.455 239.312,234.579 239.840 C 234.800 240.784,234.805 240.780,234.842 239.600 C 234.878 238.461,234.745 238.111,234.476 238.640 M111.305 241.520 C 123.155 241.566,142.451 241.566,154.185 241.520 C 165.919 241.473,156.224 241.435,132.640 241.435 C 109.056 241.435,99.455 241.473,111.305 241.520 M234.954 247.360 C 234.954 247.976,235.020 248.228,235.101 247.920 C 235.181 247.612,235.181 247.108,235.101 246.800 C 235.020 246.492,234.954 246.744,234.954 247.360 M47.273 247.591 C 47.841 247.662,48.849 247.663,49.513 247.594 C 50.177 247.524,49.712 247.466,48.480 247.465 C 47.248 247.464,46.705 247.520,47.273 247.591 M284.921 255.680 C 284.921 257.704,284.973 258.532,285.036 257.520 C 285.100 256.508,285.100 254.852,285.036 253.840 C 284.973 252.828,284.921 253.656,284.921 255.680 M218.979 254.240 C 218.981 255.296,219.041 255.689,219.112 255.114 C 219.183 254.539,219.182 253.675,219.109 253.194 C 219.036 252.713,218.977 253.184,218.979 254.240 M235.244 253.415 C 235.220 253.841,234.953 254.489,234.652 254.855 C 234.118 255.503,234.122 255.503,234.840 254.843 C 235.337 254.386,235.529 253.919,235.431 253.403 L 235.287 252.640 235.244 253.415 M233.745 259.920 L 232.480 261.280 233.840 260.015 C 235.105 258.839,235.347 258.560,235.105 258.560 C 235.053 258.560,234.441 259.172,233.745 259.920 M27.785 260.720 C 37.874 260.767,54.290 260.767,64.265 260.720 C 74.239 260.673,65.984 260.635,45.920 260.635 C 25.856 260.635,17.695 260.673,27.785 260.720 M133.545 260.720 C 148.827 260.766,173.739 260.766,188.905 260.720 C 204.071 260.674,191.568 260.636,161.120 260.636 C 130.672 260.636,118.263 260.674,133.545 260.720 M215.174 265.603 C 213.048 267.714,211.394 269.440,211.499 269.440 C 211.604 269.440,213.414 267.712,215.520 265.600 C 217.626 263.488,219.280 261.762,219.195 261.763 C 219.110 261.765,217.300 263.493,215.174 265.603 M102.812 263.520 C 102.814 264.400,102.876 264.722,102.950 264.236 C 103.023 263.749,103.021 263.029,102.945 262.636 C 102.869 262.242,102.809 262.640,102.812 263.520 M82.321 263.520 C 82.324 264.224,82.390 264.474,82.466 264.076 C 82.543 263.678,82.540 263.102,82.460 262.796 C 82.380 262.490,82.317 262.816,82.321 263.520 M228.469 265.520 L 226.720 267.360 228.560 265.611 C 230.269 263.986,230.547 263.680,230.309 263.680 C 230.259 263.680,229.431 264.508,228.469 265.520 M224.465 265.680 L 223.200 267.040 224.560 265.775 C 225.308 265.079,225.920 264.467,225.920 264.415 C 225.920 264.173,225.641 264.415,224.465 265.680 M211.020 266.000 L 210.080 267.040 211.120 266.100 C 211.692 265.583,212.160 265.115,212.160 265.060 C 212.160 264.813,211.896 265.031,211.020 266.000 M85.212 268.320 C 85.214 269.200,85.276 269.522,85.350 269.036 C 85.423 268.549,85.421 267.829,85.345 267.436 C 85.269 267.042,85.209 267.440,85.212 268.320 M105.367 268.480 C 105.367 269.272,105.430 269.596,105.506 269.200 C 105.582 268.804,105.582 268.156,105.506 267.760 C 105.430 267.364,105.367 267.688,105.367 268.480 M224.220 270.018 C 223.286 270.992,223.153 271.360,223.733 271.360 C 223.939 271.360,224.009 271.262,223.889 271.142 C 223.769 271.022,224.060 270.518,224.535 270.022 C 225.011 269.526,225.328 269.120,225.240 269.120 C 225.152 269.120,224.693 269.524,224.220 270.018 M82.641 273.120 C 82.644 273.824,82.710 274.074,82.786 273.676 C 82.863 273.278,82.860 272.702,82.780 272.396 C 82.700 272.090,82.637 272.416,82.641 273.120 M102.487 273.280 C 102.487 274.072,102.550 274.396,102.626 274.000 C 102.702 273.604,102.702 272.956,102.626 272.560 C 102.550 272.164,102.487 272.488,102.487 273.280 M195.004 277.599 C 172.621 280.358,173.760 279.982,173.760 284.617 C 173.760 286.394,181.049 372.053,181.610 376.880 L 181.806 378.560 188.474 378.560 L 195.143 378.560 195.321 375.920 C 195.419 374.468,195.806 356.936,196.182 336.960 C 196.557 316.984,196.968 300.452,197.094 300.223 C 197.221 299.993,196.921 299.008,196.422 298.018 C 193.287 291.802,200.060 283.383,214.235 275.875 C 215.925 274.981,217.104 274.875,195.004 277.599 M85.532 277.920 C 85.534 278.800,85.596 279.122,85.670 278.636 C 85.743 278.149,85.741 277.429,85.665 277.036 C 85.589 276.642,85.529 277.040,85.532 277.920 M105.047 278.080 C 105.047 278.872,105.110 279.196,105.186 278.800 C 105.262 278.404,105.262 277.756,105.186 277.360 C 105.110 276.964,105.047 277.288,105.047 278.080 M168.419 279.699 C 165.909 280.026,165.177 280.425,164.613 281.775 C 163.945 283.374,163.846 281.973,168.160 331.680 C 170.359 357.024,172.159 377.940,172.160 378.160 C 172.160 378.455,173.046 378.560,175.520 378.560 C 178.812 378.560,178.880 378.545,178.880 377.825 C 178.880 377.420,177.070 356.360,174.857 331.025 C 170.860 285.249,170.688 282.533,171.657 280.590 C 171.934 280.035,172.160 279.532,172.160 279.471 C 172.160 279.312,170.710 279.401,168.419 279.699 M82.961 282.720 C 82.964 283.424,83.030 283.674,83.106 283.276 C 83.183 282.878,83.180 282.302,83.100 281.996 C 83.020 281.690,82.957 282.016,82.961 282.720 M102.161 285.280 C 102.164 285.984,102.230 286.234,102.306 285.836 C 102.383 285.438,102.380 284.862,102.300 284.556 C 102.220 284.250,102.157 284.576,102.161 285.280 M104.727 287.680 C 104.727 288.472,104.790 288.796,104.866 288.400 C 104.942 288.004,104.942 287.356,104.866 286.960 C 104.790 286.564,104.727 286.888,104.727 287.680 M285.859 290.080 C 285.861 291.136,285.921 291.529,285.992 290.954 C 286.063 290.379,286.062 289.515,285.989 289.034 C 285.916 288.553,285.857 289.024,285.859 290.080 M85.847 289.920 C 85.847 290.712,85.910 291.036,85.986 290.640 C 86.062 290.244,86.062 289.596,85.986 289.200 C 85.910 288.804,85.847 289.128,85.847 289.920 M83.281 292.320 C 83.284 293.024,83.350 293.274,83.426 292.876 C 83.503 292.478,83.500 291.902,83.420 291.596 C 83.340 291.290,83.277 291.616,83.281 292.320 M101.847 295.040 C 101.847 295.832,101.910 296.156,101.986 295.760 C 102.062 295.364,102.062 294.716,101.986 294.320 C 101.910 293.924,101.847 294.248,101.847 295.040 M104.401 297.440 C 104.404 298.144,104.470 298.394,104.546 297.996 C 104.623 297.598,104.620 297.022,104.540 296.716 C 104.460 296.410,104.397 296.736,104.401 297.440 M86.167 299.520 C 86.167 300.312,86.230 300.636,86.306 300.240 C 86.382 299.844,86.382 299.196,86.306 298.800 C 86.230 298.404,86.167 298.728,86.167 299.520 M221.200 300.701 C 221.508 300.781,222.012 300.781,222.320 300.701 C 222.628 300.620,222.376 300.554,221.760 300.554 C 221.144 300.554,220.892 300.620,221.200 300.701 M83.601 301.920 C 83.604 302.624,83.670 302.874,83.746 302.476 C 83.823 302.078,83.820 301.502,83.740 301.196 C 83.660 300.890,83.597 301.216,83.601 301.920 M228.724 301.026 C 229.122 301.103,229.698 301.100,230.004 301.020 C 230.310 300.940,229.984 300.877,229.280 300.881 C 228.576 300.884,228.326 300.950,228.724 301.026 M237.360 301.346 C 237.756 301.422,238.404 301.422,238.800 301.346 C 239.196 301.270,238.872 301.207,238.080 301.207 C 237.288 301.207,236.964 301.270,237.360 301.346 M249.680 301.673 C 250.340 301.742,251.420 301.742,252.080 301.673 C 252.740 301.604,252.200 301.548,250.880 301.548 C 249.560 301.548,249.020 301.604,249.680 301.673 M267.920 301.669 C 268.404 301.743,269.196 301.743,269.680 301.669 C 270.164 301.596,269.768 301.536,268.800 301.536 C 267.832 301.536,267.436 301.596,267.920 301.669 M205.200 303.269 C 205.684 303.343,206.476 303.343,206.960 303.269 C 207.444 303.196,207.048 303.136,206.080 303.136 C 205.112 303.136,204.716 303.196,205.200 303.269 M101.527 304.640 C 101.527 305.432,101.590 305.756,101.666 305.360 C 101.742 304.964,101.742 304.316,101.666 303.920 C 101.590 303.524,101.527 303.848,101.527 304.640 M214.006 303.592 C 214.581 303.663,215.445 303.662,215.926 303.589 C 216.407 303.516,215.936 303.457,214.880 303.459 C 213.824 303.461,213.431 303.521,214.006 303.592 M199.465 306.080 C 199.466 307.312,199.524 307.777,199.594 307.113 C 199.663 306.449,199.662 305.441,199.591 304.873 C 199.520 304.305,199.464 304.848,199.465 306.080 M104.087 307.200 C 104.087 307.992,104.150 308.316,104.226 307.920 C 104.302 307.524,104.302 306.876,104.226 306.480 C 104.150 306.084,104.087 306.408,104.087 307.200 M34.480 306.479 C 36.812 306.534,40.628 306.534,42.960 306.479 C 45.292 306.424,43.384 306.380,38.720 306.380 C 34.056 306.380,32.148 306.424,34.480 306.479 M210.694 306.673 C 210.602 306.912,210.579 308.028,210.642 309.154 L 210.757 311.200 210.818 308.880 L 210.880 306.560 259.661 306.560 L 308.441 306.560 308.574 307.683 L 308.707 308.806 308.674 307.603 L 308.640 306.400 259.750 306.319 C 218.796 306.251,210.834 306.309,210.694 306.673 M86.481 308.960 C 86.484 309.664,86.550 309.914,86.626 309.516 C 86.703 309.118,86.700 308.542,86.620 308.236 C 86.540 307.930,86.477 308.256,86.481 308.960 M83.921 311.520 C 83.924 312.224,83.990 312.474,84.066 312.076 C 84.143 311.678,84.140 311.102,84.060 310.796 C 83.980 310.490,83.917 310.816,83.921 311.520 M101.207 314.240 C 101.207 315.032,101.270 315.356,101.346 314.960 C 101.422 314.564,101.422 313.916,101.346 313.520 C 101.270 313.124,101.207 313.448,101.207 314.240 M49.715 317.120 C 49.715 318.792,49.769 319.476,49.835 318.640 C 49.901 317.804,49.901 316.436,49.835 315.600 C 49.769 314.764,49.715 315.448,49.715 317.120 M39.136 315.438 C 40.684 315.497,43.132 315.497,44.576 315.438 C 46.019 315.379,44.752 315.331,41.760 315.331 C 38.768 315.331,37.587 315.380,39.136 315.438 M235.280 315.440 C 248.788 315.486,270.892 315.486,284.400 315.440 C 297.908 315.394,286.856 315.356,259.840 315.356 C 232.824 315.356,221.772 315.394,235.280 315.440 M103.767 316.800 C 103.767 317.592,103.830 317.916,103.906 317.520 C 103.982 317.124,103.982 316.476,103.906 316.080 C 103.830 315.684,103.767 316.008,103.767 316.800 M86.801 318.560 C 86.804 319.264,86.870 319.514,86.946 319.116 C 87.023 318.718,87.020 318.142,86.940 317.836 C 86.860 317.530,86.797 317.856,86.801 318.560 M311.472 321.600 C 311.472 323.096,311.527 323.708,311.594 322.960 C 311.662 322.212,311.662 320.988,311.594 320.240 C 311.527 319.492,311.472 320.104,311.472 321.600 M47.152 322.560 C 47.152 324.056,47.207 324.668,47.274 323.920 C 47.342 323.172,47.342 321.948,47.274 321.200 C 47.207 320.452,47.152 321.064,47.152 322.560 M84.241 321.120 C 84.244 321.824,84.310 322.074,84.386 321.676 C 84.463 321.278,84.460 320.702,84.380 320.396 C 84.300 320.090,84.237 320.416,84.241 321.120 M199.145 322.080 C 199.146 323.312,199.204 323.777,199.274 323.113 C 199.343 322.449,199.342 321.441,199.271 320.873 C 199.200 320.305,199.144 320.848,199.145 322.080 M207.794 324.000 C 207.793 325.584,207.847 326.272,207.914 325.530 C 207.981 324.787,207.982 323.491,207.916 322.650 C 207.849 321.808,207.795 322.416,207.794 324.000 M100.887 323.840 C 100.887 324.632,100.950 324.956,101.026 324.560 C 101.102 324.164,101.102 323.516,101.026 323.120 C 100.950 322.724,100.887 323.048,100.887 323.840 M308.914 326.880 C 308.913 328.464,308.967 329.152,309.034 328.410 C 309.101 327.667,309.102 326.371,309.036 325.530 C 308.969 324.688,308.915 325.296,308.914 326.880 M103.447 326.400 C 103.447 327.192,103.510 327.516,103.586 327.120 C 103.662 326.724,103.662 326.076,103.586 325.680 C 103.510 325.284,103.447 325.608,103.447 326.400 M210.352 329.280 C 210.352 330.776,210.407 331.388,210.474 330.640 C 210.542 329.892,210.542 328.668,210.474 327.920 C 210.407 327.172,210.352 327.784,210.352 329.280 M87.121 328.160 C 87.124 328.864,87.190 329.114,87.266 328.716 C 87.343 328.318,87.340 327.742,87.260 327.436 C 87.180 327.130,87.117 327.456,87.121 328.160 M84.561 330.720 C 84.564 331.424,84.630 331.674,84.706 331.276 C 84.783 330.878,84.780 330.302,84.700 329.996 C 84.620 329.690,84.557 330.016,84.561 330.720 M100.561 333.600 C 100.564 334.304,100.630 334.554,100.706 334.156 C 100.783 333.758,100.780 333.182,100.700 332.876 C 100.620 332.570,100.557 332.896,100.561 333.600 M103.121 336.160 C 103.124 336.864,103.190 337.114,103.266 336.716 C 103.343 336.318,103.340 335.742,103.260 335.436 C 103.180 335.130,103.117 335.456,103.121 336.160 M198.822 337.920 C 198.822 339.064,198.881 339.532,198.951 338.960 C 199.022 338.388,199.022 337.452,198.951 336.880 C 198.881 336.308,198.822 336.776,198.822 337.920 M87.441 337.760 C 87.444 338.464,87.510 338.714,87.586 338.316 C 87.663 337.918,87.660 337.342,87.580 337.036 C 87.500 336.730,87.437 337.056,87.441 337.760 M84.881 340.320 C 84.884 341.024,84.950 341.274,85.026 340.876 C 85.103 340.478,85.100 339.902,85.020 339.596 C 84.940 339.290,84.877 339.616,84.881 340.320 M311.794 342.560 C 311.793 344.144,311.847 344.832,311.914 344.090 C 311.981 343.347,311.982 342.051,311.916 341.210 C 311.849 340.368,311.795 340.976,311.794 342.560 M100.247 343.360 C 100.247 344.152,100.310 344.476,100.386 344.080 C 100.462 343.684,100.462 343.036,100.386 342.640 C 100.310 342.244,100.247 342.568,100.247 343.360 M207.472 344.960 C 207.472 346.456,207.527 347.068,207.594 346.320 C 207.662 345.572,207.662 344.348,207.594 343.600 C 207.527 342.852,207.472 343.464,207.472 344.960 M102.801 345.760 C 102.804 346.464,102.870 346.714,102.946 346.316 C 103.023 345.918,103.020 345.342,102.940 345.036 C 102.860 344.730,102.797 345.056,102.801 345.760 M309.232 347.840 C 309.232 349.336,309.287 349.948,309.354 349.200 C 309.422 348.452,309.422 347.228,309.354 346.480 C 309.287 345.732,309.232 346.344,309.232 347.840 M87.761 347.360 C 87.764 348.064,87.830 348.314,87.906 347.916 C 87.983 347.518,87.980 346.942,87.900 346.636 C 87.820 346.330,87.757 346.656,87.761 347.360 M210.032 350.400 C 210.032 351.896,210.087 352.508,210.154 351.760 C 210.222 351.012,210.222 349.788,210.154 349.040 C 210.087 348.292,210.032 348.904,210.032 350.400 M85.201 349.920 C 85.204 350.624,85.270 350.874,85.346 350.476 C 85.423 350.078,85.420 349.502,85.340 349.196 C 85.260 348.890,85.197 349.216,85.201 349.920 M99.927 352.960 C 99.927 353.752,99.990 354.076,100.066 353.680 C 100.142 353.284,100.142 352.636,100.066 352.240 C 99.990 351.844,99.927 352.168,99.927 352.960 M198.505 353.760 C 198.506 354.992,198.564 355.457,198.634 354.793 C 198.703 354.129,198.702 353.121,198.631 352.553 C 198.560 351.985,198.504 352.528,198.505 353.760 M102.487 355.520 C 102.487 356.312,102.550 356.636,102.626 356.240 C 102.702 355.844,102.702 355.196,102.626 354.800 C 102.550 354.404,102.487 354.728,102.487 355.520 M88.081 356.960 C 88.084 357.664,88.150 357.914,88.226 357.516 C 88.303 357.118,88.300 356.542,88.220 356.236 C 88.140 355.930,88.077 356.256,88.081 356.960 M299.840 357.707 C 299.840 357.989,290.001 358.099,259.600 358.159 L 219.360 358.237 259.503 358.320 C 297.635 358.398,300.844 358.338,300.059 357.552 C 299.938 357.432,299.840 357.501,299.840 357.707 M79.600 358.317 C 80.700 358.379,82.500 358.379,83.600 358.317 C 84.700 358.254,83.800 358.203,81.600 358.203 C 79.400 358.203,78.500 358.254,79.600 358.317 M118.640 358.320 C 127.660 358.367,142.420 358.367,151.440 358.320 C 160.460 358.273,153.080 358.234,135.040 358.234 C 117.000 358.234,109.620 358.273,118.640 358.320 M200.560 358.318 C 201.836 358.378,203.924 358.378,205.200 358.318 C 206.476 358.257,205.432 358.207,202.880 358.207 C 200.328 358.207,199.284 358.257,200.560 358.318 M314.480 358.318 C 315.932 358.377,318.308 358.377,319.760 358.318 C 321.212 358.259,320.024 358.210,317.120 358.210 C 314.216 358.210,313.028 358.259,314.480 358.318 M312.108 363.200 C 312.108 364.520,312.164 365.060,312.233 364.400 C 312.302 363.740,312.302 362.660,312.233 362.000 C 312.164 361.340,312.108 361.880,312.108 363.200 M99.607 362.560 C 99.607 363.352,99.670 363.676,99.746 363.280 C 99.822 362.884,99.822 362.236,99.746 361.840 C 99.670 361.444,99.607 361.768,99.607 362.560 M207.152 366.080 C 207.152 367.576,207.207 368.188,207.274 367.440 C 207.342 366.692,207.342 365.468,207.274 364.720 C 207.207 363.972,207.152 364.584,207.152 366.080 M102.167 365.120 C 102.167 365.912,102.230 366.236,102.306 365.840 C 102.382 365.444,102.382 364.796,102.306 364.400 C 102.230 364.004,102.167 364.328,102.167 365.120 M198.185 369.760 C 198.186 370.992,198.244 371.457,198.314 370.793 C 198.383 370.129,198.382 369.121,198.311 368.553 C 198.240 367.985,198.184 368.528,198.185 369.760 M209.714 371.360 C 209.713 372.944,209.767 373.632,209.834 372.890 C 209.901 372.147,209.902 370.851,209.836 370.010 C 209.769 369.168,209.715 369.776,209.714 371.360 M99.281 372.000 C 99.284 372.704,99.350 372.954,99.426 372.556 C 99.503 372.158,99.500 371.582,99.420 371.276 C 99.340 370.970,99.277 371.296,99.281 372.000 M171.967 385.920 C 171.967 388.472,172.017 389.516,172.078 388.240 C 172.138 386.964,172.138 384.876,172.078 383.600 C 172.017 382.324,171.967 383.368,171.967 385.920 M218.290 383.197 C 218.502 383.408,280.369 383.418,280.580 383.206 C 280.672 383.115,266.659 383.040,249.440 383.040 C 232.221 383.040,218.204 383.111,218.290 383.197 M206.834 387.040 C 206.833 388.624,206.887 389.312,206.954 388.570 C 207.021 387.827,207.022 386.531,206.956 385.690 C 206.889 384.848,206.835 385.456,206.834 387.040 M229.544 389.040 C 236.201 389.088,247.001 389.088,253.544 389.040 C 260.087 388.992,254.640 388.952,241.440 388.952 C 228.240 388.952,222.887 388.992,229.544 389.040 M209.392 392.320 C 209.392 393.816,209.447 394.428,209.514 393.680 C 209.582 392.932,209.582 391.708,209.514 390.960 C 209.447 390.212,209.392 390.824,209.392 392.320 M176.412 390.317 C 177.430 390.381,179.014 390.380,179.932 390.316 C 180.849 390.251,180.016 390.199,178.080 390.200 C 176.144 390.200,175.393 390.253,176.412 390.317 M186.480 390.318 C 187.756 390.378,189.844 390.378,191.120 390.318 C 192.396 390.257,191.352 390.207,188.800 390.207 C 186.248 390.207,185.204 390.257,186.480 390.318 M178.240 393.476 C 173.365 394.114,164.255 395.511,162.427 395.900 C 160.295 396.355,160.820 396.616,165.241 397.300 C 165.923 397.406,166.787 397.552,167.161 397.626 C 167.534 397.699,168.488 397.847,169.280 397.955 C 170.072 398.063,170.936 398.190,171.200 398.238 C 172.763 398.520,174.927 398.789,179.040 399.210 C 180.096 399.318,181.464 399.471,182.080 399.549 C 182.696 399.628,185.756 399.782,188.880 399.893 L 194.560 400.093 194.560 396.527 L 194.560 392.960 188.080 392.998 C 184.516 393.019,180.088 393.234,178.240 393.476 " stroke="none" fill="#f8bcdb" fill-rule="evenodd"></path></g></svg>