<svg width="90" height="64" viewBox="0 0 90 64" fill="none" xmlns="http://www.w3.org/2000/svg">
<g clip-path="url(#clip0)">
<path d="M0 43.4612H14.5337V28.9737H0V43.4612ZM29.068 14.4869C29.068 10.6447 27.5368 6.95998 24.8112 4.24318C22.0856 1.52637 18.3889 5.58244e-05 14.5343 0V28.9737C16.443 28.9737 18.3329 28.5989 20.0963 27.8708C21.8596 27.1428 23.4619 26.0756 24.8114 24.7303C26.161 23.385 27.2316 21.7879 27.9619 20.0302C28.6922 18.2726 29.0681 16.3887 29.068 14.4862V14.4869ZM40.1757 32.5324V43.4568H37.7742V32.5324H33.8675V30.3071H44.0836V32.5331L40.1757 32.5324ZM51.7128 39.3588H45.2364C45.2187 39.7055 45.2723 40.0522 45.3939 40.3775C45.5155 40.7029 45.7026 41 45.9436 41.2506C46.3242 41.6288 46.8391 41.842 47.3764 41.8442C48.0465 41.8442 48.4557 41.7144 48.7913 41.3811C49.0178 41.1563 49.1784 40.874 49.2558 40.5649H51.489C51.3761 41.2193 51.0939 41.8331 50.6703 42.3456C49.8516 43.3101 48.6418 43.6997 47.4138 43.6997C46.8514 43.7145 46.2917 43.6171 45.7676 43.4132C45.2435 43.2094 44.7656 42.9031 44.3619 42.5125C43.3943 41.5851 42.8734 40.231 42.8734 38.6545C42.8734 37.115 43.338 35.7424 44.2688 34.7964C44.6729 34.3935 45.1554 34.077 45.6865 33.8665C46.2177 33.656 46.7864 33.5558 47.3578 33.5722C48.7906 33.5722 50.0934 34.1473 50.8935 35.353C51.6007 36.4103 51.7682 37.5046 51.7308 38.7103C51.7308 38.7096 51.7128 39.1548 51.7128 39.3588ZM48.8092 35.983C48.6166 35.7932 48.3864 35.6457 48.1332 35.5498C47.8801 35.454 47.6097 35.412 47.3393 35.4264C47.0301 35.4158 46.7227 35.4774 46.4416 35.6062C46.1605 35.735 45.9136 35.9275 45.7204 36.1684C45.3844 36.5967 45.2069 37.1273 45.2178 37.6709H49.4047C49.4212 37.0544 49.2091 36.4535 48.8092 35.983ZM55.9031 43.5692C54.3214 43.5692 53.2605 42.8087 53.2605 40.9726V30.0472H55.6045V40.5828C55.6045 41.1393 55.7348 41.51 56.5349 41.51C56.7396 41.51 56.7953 41.4917 56.9258 41.4917V43.4391C56.5923 43.5278 56.2483 43.5716 55.9031 43.5692ZM65.1947 42.5862C64.4133 43.365 63.2035 43.699 61.8824 43.699C60.6543 43.699 59.5564 43.3467 58.7571 42.5862C58.4457 42.2985 58.1948 41.9519 58.019 41.5666C57.8433 41.1813 57.7463 40.765 57.7336 40.342H59.9109C59.9147 40.5562 59.963 40.7672 60.0526 40.962C60.1422 41.1567 60.2713 41.3308 60.4317 41.4733C60.804 41.7701 61.2318 41.8998 61.9019 41.8998C62.6832 41.8998 63.8744 41.7329 63.8744 40.6758C63.8744 40.1193 63.5021 39.7482 62.9066 39.6556C62.0508 39.5257 61.083 39.4701 60.2273 39.2845C58.906 39.0064 58.0127 37.9306 58.0127 36.7062C58.0029 36.2939 58.0865 35.8847 58.2572 35.509C58.428 35.1333 58.6815 34.8008 58.9989 34.5363C59.7061 33.924 60.7305 33.5716 61.939 33.5716C63.0929 33.5716 64.2653 33.9427 64.9721 34.7032C65.4947 35.2359 65.7998 35.9432 65.8282 36.6877H63.6124C63.605 36.3457 63.4649 36.0199 63.2215 35.7788C62.8695 35.4794 62.4187 35.3208 61.9561 35.3338C61.6145 35.3112 61.272 35.3614 60.9514 35.4812C60.7378 35.5554 60.5521 35.6929 60.4191 35.8752C60.286 36.0575 60.212 36.276 60.207 36.5014C60.207 37.1878 60.8025 37.3918 61.3237 37.4659C62.1981 37.5774 62.4402 37.5959 63.3892 37.7443C64.9151 37.9853 66.0316 38.9498 66.0316 40.4708C66.0438 40.8617 65.9759 41.2509 65.8319 41.6147C65.6879 41.9784 65.4708 42.309 65.194 42.5862H65.1947ZM71.1121 43.5879C69.1582 43.5879 68.1906 42.4748 68.1906 40.62V35.7232H66.4228V33.8128H68.1906V31.3644L70.5166 30.7894V33.8128H72.9544V35.7232H70.516V40.4171C70.516 41.1591 70.8511 41.4744 71.5953 41.4744C72.0992 41.4761 72.6027 41.4451 73.1026 41.3816V43.329C72.4527 43.4994 71.7836 43.5864 71.1115 43.5879H71.1121ZM79.505 35.8716C77.8673 35.8716 77.0114 37.0402 77.0114 38.5983V43.4578H74.6674V33.8128H76.64L76.8448 35.2595C77.2912 34.1467 78.4451 33.683 79.5801 33.683C79.8231 33.683 80.0658 33.7016 80.3059 33.7385V35.9644C80.0427 35.906 79.774 35.8749 79.5043 35.8716H79.505ZM88.7349 43.6062C87.7299 43.6062 87.1722 42.9748 87.0972 42.2524C86.6504 43.0312 85.5345 43.699 84.1571 43.699C81.8496 43.699 80.6586 42.2524 80.6586 40.6758C80.6586 38.8395 82.0916 37.7822 83.9337 37.6523L86.7809 37.4482V36.8546C86.7809 35.9457 86.4641 35.3338 85.1434 35.3338C84.0639 35.3338 83.4313 35.816 83.3755 36.7062H81.1234C81.2537 34.5363 82.984 33.5716 85.1428 33.5716C86.7988 33.5716 88.213 34.0909 88.7712 35.5378C88.9847 36.1641 89.0794 36.8246 89.0506 37.4854V41.0652C89.0506 41.5102 89.1984 41.6771 89.5901 41.6771C89.6903 41.6753 89.79 41.663 89.8876 41.6403V43.3467C89.5316 43.5297 89.1346 43.6191 88.7342 43.6062H88.7349ZM86.7809 39.1733L84.3245 39.3588C83.6173 39.4143 82.9289 39.841 82.9289 40.62C82.9289 41.362 83.5801 41.8255 84.3059 41.8255C85.7573 41.8255 86.7809 41.0467 86.7809 39.6183V39.1733ZM41.403 55.5975H38.6117V60.3089H36.2299V47.1582H41.4036C44.4369 47.1582 46.0557 48.8461 46.0557 51.368C46.0557 53.8898 44.4363 55.5975 41.403 55.5975ZM41.3099 49.254H38.6117V53.5017H41.3099C42.9103 53.5017 43.6361 52.6484 43.6361 51.3871C43.6361 50.1259 42.9103 49.254 41.3099 49.254ZM53.5173 60.3089L53.3498 59.0476C52.8853 59.9936 51.8055 60.5501 50.5771 60.5501C48.5117 60.5501 47.2277 59.1588 47.2277 57.1V50.6639H49.5538V56.5807C49.5538 57.7121 50.0004 58.417 51.2286 58.417C51.4498 58.4229 51.6698 58.3831 51.8748 58.3002C52.0797 58.2172 52.2652 58.0928 52.4196 57.9348C52.9777 57.4153 53.1266 56.5435 53.1266 55.7646V50.6639H55.4527V60.3089H53.5173ZM62.2448 52.7227C60.6072 52.7227 59.7515 53.8913 59.7515 55.4493V60.3089H57.4075V50.6639H59.3784L59.5832 52.1106C60.0296 50.9977 61.1835 50.534 62.3185 50.534C62.5614 50.5341 62.804 50.5527 63.0441 50.5896V52.8153C62.7816 52.7572 62.5137 52.7262 62.2448 52.7227ZM71.4745 59.7709C70.803 60.299 69.9663 60.5747 69.1113 60.5497C67.9576 60.5497 67.0272 60.1415 66.5804 59.6025V63.9985H64.2545V50.6639H66.2641L66.4129 51.721C66.9901 50.8308 68.0691 50.4412 69.1301 50.4412C69.9832 50.4315 70.8127 50.7203 71.4741 51.2575C72.6279 52.2034 73.2046 53.6501 73.2046 55.4672C73.2051 57.3597 72.6284 58.8249 71.4745 59.7709ZM70.2286 53.1493C70.0471 52.9083 69.8108 52.7137 69.5392 52.5815C69.2675 52.4493 68.9682 52.3832 68.6659 52.3888C66.8422 52.3888 66.4697 54.1138 66.4697 55.5041C66.4697 56.8943 66.842 58.6016 68.6659 58.6016C68.9682 58.6072 69.2675 58.5412 69.5392 58.409C69.8108 58.2768 70.0471 58.0821 70.2286 57.8411C70.7124 57.2096 70.8427 56.3389 70.8427 55.5047C70.8427 54.6705 70.7115 53.7797 70.2277 53.1493H70.2286ZM77.355 60.4206C75.7733 60.4206 74.7124 59.6604 74.7124 57.8241V46.8997H77.0564V57.4351C77.0564 57.9914 77.1867 58.3612 77.9868 58.3612C78.1915 58.3612 78.2472 58.3427 78.3777 58.3427V60.2904C78.0442 60.3792 77.7002 60.423 77.355 60.4206ZM87.8481 56.2109H81.3723C81.3546 56.5577 81.4082 56.9044 81.5298 57.2298C81.6514 57.5551 81.8385 57.8523 82.0796 58.103C82.4602 58.4811 82.975 58.6944 83.5124 58.6965C84.1824 58.6965 84.5917 58.5667 84.9272 58.2335C85.1537 58.0086 85.3143 57.7263 85.3918 57.4172H87.6249C87.512 58.0716 87.2298 58.6854 86.8062 59.1979C85.9875 60.1624 84.7777 60.552 83.5497 60.552C82.9873 60.5668 82.4277 60.4693 81.9036 60.2655C81.3795 60.0616 80.9016 59.7554 80.4979 59.3648C79.5303 58.4374 79.0093 57.0834 79.0093 55.5068C79.0093 53.9673 79.4739 52.5949 80.4047 51.649C80.8087 51.2455 81.2911 50.9285 81.8224 50.7176C82.3536 50.5067 82.9226 50.4063 83.4942 50.4225C84.927 50.4225 86.2297 50.9975 87.0299 52.2032C87.7371 53.2605 87.9045 54.3548 87.8671 55.5603C87.8667 55.5605 87.8481 56.0059 87.8481 56.2096V56.2109ZM84.9452 52.8353C84.7526 52.6456 84.5223 52.4981 84.2692 52.4023C84.016 52.3065 83.7456 52.2645 83.4752 52.279C83.166 52.2682 82.8586 52.3297 82.5775 52.4585C82.2964 52.5873 82.0495 52.7798 81.8564 53.0207C81.5203 53.449 81.3428 53.9796 81.3538 54.5232H85.5409C85.5574 53.9063 85.3453 53.3049 84.9452 52.834V52.8353Z" fill="#ED0037"/>
</g>
<defs>
<clipPath id="clip0">
<rect width="89.8876" height="64" fill="white"/>
</clipPath>
</defs>
</svg>
